<svg xmlns="http://www.w3.org/2000/svg" width="19.5" height="18" viewBox="0 0 19.5 18"><defs><style>.a{opacity:0.5;}</style></defs><g class="a" transform="translate(-3.375 -4.5)"><path d="M21,6.75H19.125V7.875a.376.376,0,0,1-.375.375H18a.376.376,0,0,1-.375-.375V6.75h-9V7.875a.376.376,0,0,1-.375.375H7.5a.376.376,0,0,1-.375-.375V6.75H5.25A1.881,1.881,0,0,0,3.375,8.625v12.75A1.881,1.881,0,0,0,5.25,23.25H21a1.881,1.881,0,0,0,1.875-1.875V8.625A1.881,1.881,0,0,0,21,6.75Zm.375,14.062a.94.94,0,0,1-.937.938H5.813a.94.94,0,0,1-.938-.938V12.375A.376.376,0,0,1,5.25,12H21a.376.376,0,0,1,.375.375Z" transform="translate(0 -0.75)"/><path d="M10.5,4.875a.376.376,0,0,0-.375-.375h-.75A.376.376,0,0,0,9,4.875V6h1.5Z" transform="translate(-1.875 0)"/><path d="M26.25,4.875a.376.376,0,0,0-.375-.375h-.75a.376.376,0,0,0-.375.375V6h1.5Z" transform="translate(-7.125 0)"/></g></svg>