<svg xmlns="http://www.w3.org/2000/svg" width="19.493" height="18.004" viewBox="0 0 19.493 18.004">
  <g id="Icon_ionic-ios-cart" data-name="Icon ionic-ios-cart" transform="translate(-3.382 -4.493)">
    <path id="Path_1651" data-name="Path 1651" d="M11.812,29.25a1.125,1.125,0,1,1-1.125-1.125A1.125,1.125,0,0,1,11.812,29.25Z" transform="translate(-2.06 -7.878)" fill="#fe6d73"/>
    <path id="Path_1652" data-name="Path 1652" d="M27.6,29.25a1.125,1.125,0,1,1-1.125-1.125A1.125,1.125,0,0,1,27.6,29.25Z" transform="translate(-7.322 -7.878)" fill="#fe6d73"/>
    <path id="Path_1653" data-name="Path 1653" d="M22.868,7.694a.276.276,0,0,0-.244-.2L7.357,6.021a.47.47,0,0,1-.352-.22,4.773,4.773,0,0,0-.572-.872c-.361-.441-1.041-.427-2.287-.436a.683.683,0,0,0-.764.661.67.67,0,0,0,.731.661A6.228,6.228,0,0,1,5.332,5.9c.22.066.4.427.464.741a.017.017,0,0,0,0,.014c.009.056.094.478.094.483L7.769,17.06a3.645,3.645,0,0,0,.68,1.673,1.871,1.871,0,0,0,1.542.759h11.09a.666.666,0,0,0,.675-.628.653.653,0,0,0-.656-.684H9.982a.545.545,0,0,1-.389-.131,2.1,2.1,0,0,1-.539-1.219l-.2-1.111a.026.026,0,0,1,.019-.028l13.017-2.2a.274.274,0,0,0,.23-.244l.75-5.428A.267.267,0,0,0,22.868,7.694Z" transform="translate(0 0)" fill="#fe6d73"/>
  </g>
</svg>
