<svg xmlns="http://www.w3.org/2000/svg" width="64.799" height="44" viewBox="0 0 64.799 44"><defs><style>.a{fill:#22ab4b;}</style></defs><g transform="translate(-1 -10.9)"><path class="a" d="M34.545,13.09h2.4a1.045,1.045,0,0,0,0-2.09h-2.4a1.045,1.045,0,0,0,0,2.09Z" transform="translate(1.467 0.005)"/><path class="a" d="M12.135,43A3.079,3.079,0,0,0,9,46.135a.987.987,0,0,0,1.045,1.045.987.987,0,0,0,1.045-1.045.987.987,0,0,1,1.045-1.045,1.045,1.045,0,1,0,0-2.09Z" transform="translate(0.361 1.449)"/><path class="a" d="M55.181,46.045a1.045,1.045,0,0,0-2.09,0,.987.987,0,0,1-1.045,1.045,1.045,1.045,0,0,0,0,2.09A3.079,3.079,0,0,0,55.181,46.045Z" transform="translate(2.257 1.539)"/><path class="a" d="M37.584,43.181A1.7,1.7,0,0,0,39.361,41.4V40.045a1.045,1.045,0,0,0-2.09,0V41.09H32.045a1.045,1.045,0,0,0,0,2.09Z" transform="translate(1.354 1.268)"/><path class="a" d="M28.135,43.09a1.045,1.045,0,1,0,0-2.09h-2.09a1.045,1.045,0,1,0,0,2.09Z" transform="translate(1.083 1.359)"/><path class="a" d="M54.226,19H50.672A1.651,1.651,0,0,0,49,20.672v1.463a1.045,1.045,0,0,0,2.09,0V21.09h3.135a1.045,1.045,0,1,0,0-2.09Z" transform="translate(2.167 0.366)"/><path class="a" d="M64.392,40.373a.987.987,0,0,0,1.045-1.045V30.444c0-.1-5.226-12.124-5.226-12.124a5.616,5.616,0,0,0-5.017-3.24H44.535V13.513A2.587,2.587,0,0,0,41.922,10.9a1.045,1.045,0,0,0,0,2.09.671.671,0,0,1,.523.523V36.088h-32.4a1.045,1.045,0,0,0,0,2.09h32.4v8.361H39.832a1.045,1.045,0,1,0,0,2.09h6.9a7.6,7.6,0,0,0,2.09,4.181H45.58a1.045,1.045,0,1,0,0,2.09H64.392a1.045,1.045,0,0,0,0-2.09h-5.33a6.975,6.975,0,0,0,2.09-4.181h3.24a.987.987,0,0,0,1.045-1.045V43.4a1.045,1.045,0,1,0-2.09,0v3.135H61.152a7.313,7.313,0,0,0-7.211-6.271,1.045,1.045,0,1,0,0,2.09,5.273,5.273,0,1,1-3.24,1.15,1.045,1.045,0,1,0-1.254-1.672,7.478,7.478,0,0,0-2.717,4.7H44.535V17.275h2.09V30.862a.987.987,0,0,0,1.045,1.045H63.347v7.42a.987.987,0,0,0,1.045,1.045ZM48.715,29.817V17.275H55.2a3.625,3.625,0,0,1,3.135,1.986l4.494,10.556Z" transform="translate(0.361)"/><path class="a" d="M20.858,52.806h-3.24a6.975,6.975,0,0,0,2.09-4.181H35.49a1.045,1.045,0,0,0,0-2.09H19.708a7.282,7.282,0,0,0-14.423,0H3.09V38.174H6.226a1.045,1.045,0,0,0,0-2.09H3.09V14.135A.987.987,0,0,1,4.135,13.09h28.01a1.045,1.045,0,0,0,0-2.09H4.135A3.079,3.079,0,0,0,1,14.135v32.19a2.32,2.32,0,0,0,2.3,2.3H5.285a7.6,7.6,0,0,0,2.09,4.181H2.045a1.045,1.045,0,1,0,0,2.09H20.858a1.045,1.045,0,1,0,0-2.09Zm-8.361,0a5.226,5.226,0,1,1,5.226-5.226A5.175,5.175,0,0,1,12.5,52.806Z" transform="translate(0 0.005)"/><path class="a" d="M40.767,51H24.045a1.045,1.045,0,1,0,0,2.09H40.767a1.045,1.045,0,0,0,0-2.09Z" transform="translate(0.993 1.81)"/><path class="a" d="M12.226,21.09a1.045,1.045,0,0,0,0-2.09H8.045A.987.987,0,0,0,7,20.045v8.361a.987.987,0,0,0,1.045,1.045A.987.987,0,0,0,9.09,28.406V25.271h3.135a1.045,1.045,0,0,0,0-2.09H9.09V21.09Z" transform="translate(0.271 0.366)"/><path class="a" d="M21.271,22.135A3.079,3.079,0,0,0,18.135,19h-2.09A.987.987,0,0,0,15,20.045v8.361a1.045,1.045,0,1,0,2.09,0V25.271h.418l1.777,3.553c.209.418.627.627,1.359.418a.9.9,0,0,0,.418-1.359l-1.568-3.031A2.935,2.935,0,0,0,21.271,22.135Zm-3.135,1.045H17.09V21.09h1.045a1.045,1.045,0,1,1,0,2.09Z" transform="translate(0.632 0.366)"/><path class="a" d="M28.226,21.09a1.045,1.045,0,0,0,0-2.09H24.045A.987.987,0,0,0,23,20.045v8.361a.987.987,0,0,0,1.045,1.045h4.181a1.045,1.045,0,0,0,0-2.09H25.09v-2.09h3.135a1.045,1.045,0,0,0,0-2.09H25.09V21.09Z" transform="translate(0.993 0.366)"/><path class="a" d="M31,20.045v8.361a.987.987,0,0,0,1.045,1.045h4.181a1.045,1.045,0,0,0,0-2.09H33.09v-2.09h3.135a1.045,1.045,0,0,0,0-2.09H33.09V21.09h3.135a1.045,1.045,0,0,0,0-2.09H32.045A.987.987,0,0,0,31,20.045Z" transform="translate(1.354 0.366)"/></g></svg>