<svg xmlns="http://www.w3.org/2000/svg" xmlns:xlink="http://www.w3.org/1999/xlink" width="476.261" height="538" viewBox="0 0 476.261 538"><defs><style>.a,.c{fill:#7fe69e;}.a{opacity:0.2;}.b{fill:#fff;}.d,.e{fill:#2b2b2b;}.d{font-size:19px;font-family:NunitoSans-Bold, Nunito Sans;font-weight:700;}.f{font-size:12px;font-family:SegoeUI, Segoe UI;letter-spacing:0.04em;}.g{clip-path:url(#c);}.h{filter:url(#a);}</style><filter id="a" x="37" y="0" width="402" height="538" filterUnits="userSpaceOnUse"><feOffset dy="3" input="SourceAlpha"/><feGaussianBlur stdDeviation="15" result="b"/><feFlood flood-opacity="0.161"/><feComposite operator="in" in2="b"/><feComposite in="SourceGraphic"/></filter><clipPath id="c"><path class="a" d="M180.737,0c112.19,0,196.195,54.027,225.441,212.821S292.926,424.89,180.737,424.89-95.318,363.258-61.77,216.62,68.547,0,180.737,0Z" transform="translate(205.213 3180)"/></clipPath></defs><g transform="translate(-162 -1650.109)"><g class="h" transform="matrix(1, 0, 0, 1, 162, 1650.11)"><rect class="b" width="312" height="448" transform="translate(82 42)"/></g><g transform="translate(243.996 1691.949)"><path class="c" d="M-1520,0h312.009V43.82H-1520Z" transform="translate(1520 0.16)"/><text class="d" transform="translate(127.005 28.16)"><tspan x="0" y="0">Health</tspan></text><path class="e" d="M8.007,16.032a1.584,1.584,0,1,0,1.584,1.584A1.584,1.584,0,0,0,8.007,16.032ZM3.375,3.6V5.184H4.957l2.852,5.777L6.619,12.9a1.577,1.577,0,0,0,1.509,2.34h9.263V13.716H8.322a.187.187,0,0,1-.2-.2.988.988,0,0,1,.087-.2L9,12.07h5.9a1.554,1.554,0,0,0,1.387-.832l2.852-4.905a.927.927,0,0,0,.079-.4.762.762,0,0,0-.792-.753H6.7L5.95,3.6ZM15.807,16.032a1.584,1.584,0,1,0,1.584,1.584A1.584,1.584,0,0,0,15.807,16.032Z" transform="translate(275.7 10.56)"/><path class="e" d="M10.987,20.136,4.858,14.007a1.226,1.226,0,0,1,0-1.733l6.129-6.128A1.226,1.226,0,0,1,12.72,7.878L8.684,11.913H20.435a1.226,1.226,0,0,1,0,2.452H8.684L12.721,18.4a1.226,1.226,0,0,1-1.733,1.733Z" transform="translate(12.835 8.374)"/></g><text class="f" transform="translate(308.631 1973.109)"><tspan x="0" y="0">Results screen would come here</tspan></text><g class="g" transform="translate(23 -1416.891)"><rect class="b" width="312" height="226" transform="translate(221 3412)"/></g></g></svg>