<svg xmlns="http://www.w3.org/2000/svg" xmlns:xlink="http://www.w3.org/1999/xlink" width="431" height="322.66" viewBox="0 0 431 322.66"><defs><style>.a,.h,.y{fill:#fff;}.a,.x{stroke:#707070;}.b,.d,.i,.k,.r,.x{fill:none;}.c{fill:#ffe4e5;}.d{stroke:#000;stroke-width:2px;}.d,.i,.k{stroke-linecap:round;}.e{clip-path:url(#a);}.f{fill:#c9ddd3;}.g{fill:#1d455d;}.i{stroke:#39304c;}.i,.k{stroke-linejoin:round;}.j{clip-path:url(#b);}.k{stroke:#d0d8d8;}.l{fill:#afabc4;}.m{fill:#887fa8;}.n{fill:#efbc9b;}.o{fill:#efe1da;}.p{fill:#ffd9c4;}.q{fill:#20646c;}.r{stroke:#cecad7;stroke-miterlimit:10;}.s,.t{fill:#22ab4b;}.t{font-size:12px;font-family:Baloo;}.u{fill:url(#c);}.v{font-size:7px;opacity:0.5;}.v,.z{font-family:Baloo2-Regular, 'Baloo \32 ';}.w{fill:#6c63ff;stroke:#fff;}.x{stroke-width:0.5px;stroke-dasharray:1 1;}.y{stroke:#ccc;}.ab,.z{font-size:9px;}.aa{font-size:10px;}.aa,.ab,.ac{font-family:Baloo2-SemiBold, 'Baloo \32 ';font-weight:600;}.ad,.ae{fill:#7fe69e;}.ad{opacity:0.2;}.af{stroke:none;}.ag{filter:url(#d);}</style><clipPath id="a"><path class="a" d="M4774.646,3360.7s-4.431-30.275,0-33.967,24.368-21.414,24.368-21.414,7.525-8.9,11.217-8.157c1.565.313-2.784-117.737-2.784-117.737h64.039c1.925,0,133.49.957,149.063.614,2.11-.046,3.395,130.545,3.685,130.448,2.215-.739,56.12,27.322,56.12,27.322s11.814,56.859,11.814,60.551,14.03,35.26-19.937,61.29c-3.193,2.447-6.111,4.851-9.151,7.459-2.812,2.412-1.863,17.953-1.863,17.953s-10.35,2.922-20.743,5.057-12.32,2.048-20.833,3.485c-15.292,2.582-43.656,6.257-65.238,5.047-79.012-4.431-149.452-2.638-154.259-3.239-5.762-.459-41.387-1.983-49.984-10.018s5.4-15.619,9.087-28.087c1.435-6.693,3.952-20.073,2.109-25.718C4749.539,3395.407,4774.646,3360.7,4774.646,3360.7Z" transform="translate(-4747.412 -3179.426)"/></clipPath><clipPath id="b"><path class="b" d="M304.284,176.067l-186.365-.43a.66.66,0,0,1-.7-.586L113,93.171a.92.92,0,0,1,.957-.8l194.541.445c.512,0,.987.408.95.809L305,175.481A.66.66,0,0,1,304.284,176.067Z" transform="translate(-113 -92.37)"/></clipPath><linearGradient id="c" y1="0.5" x2="0.992" y2="0.5" gradientUnits="objectBoundingBox"><stop offset="0" stop-color="#fe6d73"/><stop offset="0.251" stop-color="#d6bb10"/><stop offset="0.372" stop-color="#45ae40"/><stop offset="0.51" stop-color="#22ab4b"/><stop offset="0.674" stop-color="#3fae41"/><stop offset="0.795" stop-color="#d6bb10"/><stop offset="1" stop-color="#fe6d73"/></linearGradient><filter id="d" x="234.698" y="73.914" width="178.334" height="86.773" filterUnits="userSpaceOnUse"><feOffset dy="3" input="SourceAlpha"/><feGaussianBlur stdDeviation="3" result="e"/><feFlood flood-opacity="0.161"/><feComposite operator="in" in2="e"/><feComposite in="SourceGraphic"/></filter></defs><g transform="translate(-4735 -4609)"><g transform="translate(4735 4609)"><path class="c" d="M4473.724,4698.246c-49.707,39.423-196.217,28.152-287.294,22.125-41.031-5.988-72.467-1.253-77.011-46.233s-24.436-29-14.08-54.575,22.738-42.973,53.445-61.56,78.25-12.853,103.646-12.786c.844,7.25,4.151,2.717,9,8.334a160.274,160.274,0,0,1,10.4,14.135s55.208-14.56,80.386-22.47c37.979-11.931,53.887-20.735,53.887-20.735s7.729-18.261,33.749-15.209,62.318,6.37,70.329,27.416c12.982,34.11,15.552,112.729,11.332,116.478S4518.254,4656.691,4473.724,4698.246Z" transform="translate(-4092.39 -4403.949)"/><path class="d" d="M0,49.957S26.917,18.9,54.863,11.8C109.424-.617,294.033-19.52,337.429-23.905c57.938-5.854,62,33.5,62,33.5" transform="translate(21.572 133.818)"/><g class="e" transform="translate(43.381)"><g transform="translate(5.955 1.412)"><path class="f" d="M311.861,342.876l-189.83-.415a4.452,4.452,0,0,1-4.452-4.5l.26-114.183a4.489,4.489,0,0,1,4.5-4.452l189.933.423a4.451,4.451,0,0,1,4.452,4.5l-.356,114.183A4.489,4.489,0,0,1,311.861,342.876Z" transform="translate(-50.86 -118.183)"/><path class="g" d="M114.936,339.38c-4.874,0-3.94-3.969-3.932-8.844l.245-105.51a8.829,8.829,0,0,1,8.844-8.807l180.9.423a8.821,8.821,0,0,1,8.829,8.844L309.573,331c0,4.874.905,8.814-3.969,8.807" transform="translate(-49.144 -117.38)"/><path class="h" d="M305.1,333.883l-189.83-.423a4.452,4.452,0,0,1-4.452-4.5l.267-114.183a4.489,4.489,0,0,1,4.5-4.452l189.933.423a4.452,4.452,0,0,1,4.452,4.5l-.356,114.183A4.5,4.5,0,0,1,305.1,333.883Z" transform="translate(-49.116 -115.86)"/><rect class="i" width="51.735" height="35.828" rx="6.7" transform="translate(188.759 213.452) rotate(180)"/><path class="h" d="M307.572,83.453,110.679,83c-2.085,0-4.14.824-4.585,1.862l-1.254,2.114,208.482.408-1.135-2.048C311.7,84.3,309.656,83.46,307.572,83.453Z" transform="translate(-47.573 -83)"/><path class="g" d="M305.328,179.1l-192.819-.445a2.9,2.9,0,0,1-3.086-2.359l-4.815-87.466c-.148-1.684,1.877-3.368,4.021-3.361l200.862.46c2.144,0,4.155,1.7,4.006,3.383l-5.075,87.466A2.9,2.9,0,0,1,305.328,179.1Z" transform="translate(-47.511 -83.637)"/><g class="j" transform="translate(63.321 6.952)"><path class="h" d="M304.284,176.067l-186.365-.43a.66.66,0,0,1-.7-.586L113,93.171a.92.92,0,0,1,.957-.8l194.541.445c.512,0,.987.408.95.809L305,175.481A.66.66,0,0,1,304.284,176.067Z" transform="translate(-113 -92.37)"/></g><path class="k" d="M303.047,291.1l-181.03-.415a2.842,2.842,0,0,1-2.827-2.842l.148-64.258a2.8,2.8,0,0,1,2.819-2.8l181.03.415a2.812,2.812,0,0,1,2.8,2.819l-.148,64.251A2.834,2.834,0,0,1,303.047,291.1Z" transform="translate(-51.276 -118.56)"/><rect class="g" width="9.259" height="6.358" rx="1.63" transform="translate(76.109 110.025) rotate(0.13)"/><rect class="g" width="9.259" height="6.358" rx="1.63" transform="translate(88.187 110.052) rotate(0.13)"/><rect class="g" width="9.259" height="6.358" rx="1.63" transform="translate(100.251 110.079) rotate(0.13)"/><rect class="g" width="9.259" height="6.358" rx="1.63" transform="translate(112.329 110.099) rotate(0.13)"/><rect class="g" width="9.259" height="6.358" rx="1.63" transform="translate(124.393 110.134) rotate(0.13)"/><rect class="g" width="9.259" height="6.358" rx="1.63" transform="translate(136.464 110.162) rotate(0.13)"/><rect class="g" width="9.259" height="6.358" rx="1.63" transform="translate(148.543 110.189) rotate(0.13)"/><rect class="g" width="9.259" height="6.358" rx="1.63" transform="translate(160.606 110.209) rotate(0.13)"/><rect class="g" width="9.259" height="6.358" rx="1.63" transform="translate(172.685 110.236) rotate(0.13)"/><rect class="g" width="9.259" height="6.358" rx="1.63" transform="translate(184.748 110.271) rotate(0.13)"/><rect class="g" width="9.259" height="6.358" rx="1.63" transform="translate(196.827 110.299) rotate(0.13)"/><rect class="g" width="9.259" height="6.358" rx="1.63" transform="translate(209.288 109.805)"/><path class="g" d="M1.217.007h9.645a1.2,1.2,0,0,1,1.2,1.2V5.156a1.209,1.209,0,0,1-1.209,1.209H1.209A1.209,1.209,0,0,1,0,5.156V1.209A1.209,1.209,0,0,1,1.209,0Z" transform="matrix(1, 0.002, -0.002, 1, 220.956, 110.333)"/><rect class="g" width="12.086" height="6.358" rx="1.63" transform="translate(235.798 110.388) rotate(0.17)"/><rect class="g" width="9.259" height="12.153" rx="1.63" transform="translate(76.015 154.443) rotate(0.13)"/><rect class="g" width="9.259" height="12.153" rx="1.63" transform="translate(88.094 154.471) rotate(0.13)"/><rect class="g" width="9.259" height="12.153" rx="1.63" transform="translate(100.648 154.224)"/><rect class="g" width="9.259" height="12.153" rx="1.63" transform="translate(112.228 154.518) rotate(0.13)"/><path class="g" d="M239.414,303.577l-43.032-.1a1.209,1.209,0,0,1-1.2-1.209v-9.749a1.2,1.2,0,0,1,1.209-1.2l43.032.1a1.217,1.217,0,0,1,1.209,1.209v9.749a1.2,1.2,0,0,1-1.217,1.2Z" transform="translate(-70.887 -136.762)"/><rect class="g" width="9.259" height="12.153" rx="1.63" transform="translate(172.576 154.663) rotate(0.13)"/><rect class="g" width="9.259" height="12.153" rx="1.63" transform="translate(184.648 154.69) rotate(0.13)"/><rect class="g" width="9.259" height="12.153" rx="1.63" transform="translate(197.21 154.224)"/><rect class="g" width="10.179" height="4.674" rx="1.63" transform="translate(223.352 162.257) rotate(0.13)"/><rect class="g" width="10.179" height="4.674" rx="1.63" transform="translate(236.625 162.287) rotate(0.13)"/><rect class="g" width="10.179" height="4.674" rx="1.63" transform="translate(210.579 161.696)"/><rect class="g" width="10.179" height="4.674" rx="1.63" transform="translate(223.369 154.771) rotate(0.13)"/><rect class="g" width="9.259" height="9.259" rx="1.63" transform="translate(76.506 118.738)"/><rect class="g" width="9.259" height="9.259" rx="1.63" transform="translate(88.167 118.985) rotate(0.13)"/><rect class="g" width="9.259" height="9.259" rx="1.63" transform="translate(100.648 118.731)"/><rect class="g" width="9.259" height="9.259" rx="1.63" transform="translate(112.309 119.032) rotate(0.13)"/><rect class="g" width="9.259" height="9.259" rx="1.63" transform="translate(124.38 119.067) rotate(0.13)"/><rect class="g" width="9.259" height="9.259" rx="1.63" transform="translate(136.861 118.738)"/><rect class="g" width="9.259" height="9.259" rx="1.63" transform="translate(148.522 119.114) rotate(0.13)"/><rect class="g" width="9.259" height="9.259" rx="1.63" transform="translate(161.004 118.731)"/><rect class="g" width="9.259" height="9.259" rx="1.63" transform="translate(173.075 118.731)"/><rect class="g" width="9.259" height="9.259" rx="1.63" transform="translate(184.736 119.204) rotate(0.13)"/><rect class="g" width="9.259" height="9.259" rx="1.63" transform="translate(196.807 119.224) rotate(0.13)"/><rect class="g" width="9.259" height="9.259" rx="1.63" transform="translate(209.288 118.731)"/><path class="g" d="M1.209,0h9.645a1.2,1.2,0,0,1,1.2,1.2V8.05a1.209,1.209,0,0,1-1.209,1.209H1.209A1.209,1.209,0,0,1,0,8.05V1.2A1.209,1.209,0,0,1,1.209,0Z" transform="matrix(1, 0.002, -0.002, 1, 220.905, 119.273)"/><path class="g" d="M1.209,0h9.645a1.209,1.209,0,0,1,1.209,1.209V8.057a1.2,1.2,0,0,1-1.2,1.2H1.209A1.209,1.209,0,0,1,0,8.05V1.2A1.2,1.2,0,0,1,1.209,0Z" transform="translate(235.742 119.321) rotate(0.17)"/><path class="g" d="M144.073,268.584l-12.724-.044a1.209,1.209,0,0,1-1.209-1.209v-6.848a1.209,1.209,0,0,1,1.2-1.2l12.731.044a1.2,1.2,0,0,1,1.2,1.209v6.848a1.209,1.209,0,0,1-1.2,1.2Z" transform="translate(-54.102 -128.493)"/><path class="g" d="M168.683,268.639H155.959a1.217,1.217,0,0,1-1.209-1.209v-6.848a1.2,1.2,0,0,1,1.2-1.2h12.731a1.2,1.2,0,0,1,1.2,1.209v6.841A1.209,1.209,0,0,1,168.683,268.639Z" transform="translate(-60.453 -128.519)"/><rect class="g" width="9.259" height="9.259" rx="1.63" transform="translate(112.275 130.866) rotate(0.13)"/><rect class="g" width="9.259" height="9.259" rx="1.63" transform="translate(124.79 130.564)"/><rect class="g" width="9.259" height="9.259" rx="1.63" transform="translate(136.417 130.921) rotate(0.13)"/><rect class="g" width="9.259" height="9.259" rx="1.63" transform="translate(148.495 130.948) rotate(0.13)"/><rect class="g" width="9.259" height="9.259" rx="1.63" transform="translate(161.004 130.564)"/><rect class="g" width="9.259" height="9.259" rx="1.63" transform="translate(172.638 130.995) rotate(0.13)"/><rect class="g" width="9.259" height="9.259" rx="1.63" transform="translate(184.709 131.03) rotate(0.13)"/><rect class="g" width="9.259" height="9.259" rx="1.63" transform="translate(196.78 131.058) rotate(0.13)"/><rect class="g" width="9.259" height="9.259" rx="1.63" transform="translate(208.851 131.085) rotate(0.13)"/><rect class="g" width="9.259" height="9.259" rx="1.63" transform="translate(220.655 131.082) rotate(0.13)"/><path class="g" d="M355.223,269.049l-12.524-.059a1.209,1.209,0,0,1-1.209-1.209v-6.848a1.209,1.209,0,0,1,1.2-1.2l12.531.059a1.2,1.2,0,0,1,1.2,1.209v6.848A1.209,1.209,0,0,1,355.223,269.049Z" transform="translate(-108.646 -128.609)"/><rect class="g" width="21.33" height="9.259" rx="1.63" transform="translate(76.042 142.617) rotate(0.13)"/><rect class="g" width="9.259" height="9.259" rx="1.63" transform="translate(100.184 142.665) rotate(0.13)"/><rect class="g" width="9.259" height="9.259" rx="1.63" transform="translate(112.255 142.692) rotate(0.13)"/><rect class="g" width="9.259" height="9.259" rx="1.63" transform="translate(124.326 142.727) rotate(0.13)"/><rect class="g" width="9.259" height="9.259" rx="1.63" transform="translate(136.854 142.391)"/><rect class="g" width="9.259" height="9.259" rx="1.63" transform="translate(148.469 142.774) rotate(0.13)"/><rect class="g" width="9.259" height="9.259" rx="1.63" transform="translate(160.532 142.809) rotate(0.13)"/><rect class="g" width="9.259" height="9.259" rx="1.63" transform="translate(172.611 142.829) rotate(0.13)"/><rect class="g" width="9.259" height="9.259" rx="1.63" transform="translate(184.674 142.856) rotate(0.13)"/><rect class="g" width="9.259" height="9.259" rx="1.63" transform="translate(196.753 142.884) rotate(0.13)"/><rect class="g" width="9.259" height="9.259" rx="1.63" transform="translate(208.824 142.911) rotate(0.13)"/><rect class="g" width="26.917" height="9.259" rx="1.63" transform="translate(220.888 142.946) rotate(0.13)"/><rect class="l" width="32.214" height="46.333" rx="16.107" transform="translate(266.194 147.933)"/><rect class="m" width="32.214" height="46.333" rx="16.107" transform="translate(266.194 147.933)"/><path class="h" d="M374.9,252.26h0A16.107,16.107,0,0,1,391,268.389V286.5a12.116,12.116,0,0,1-12.116,12.116h-7.983A12.116,12.116,0,0,1,358.79,286.5V268.389A16.107,16.107,0,0,1,374.9,252.282Z" transform="translate(-92.596 -108.497)"/><path class="g" d="M406.924,292.762h0a3.524,3.524,0,0,1-3.524-3.524v-3.094a3.524,3.524,0,0,1,3.524-3.524h0a3.524,3.524,0,0,1,3.524,3.524v3.094A3.524,3.524,0,0,1,406.924,292.762Z" transform="translate(-124.623 -134.516)"/><path class="f" d="M437.309,318.7a14.546,14.546,0,0,0-2.322-2.367c-.868-.742-1.81-1.484-2.6-2.048l.074-.26c1-3.509-2.508-7.182-4.006-9.682-.905-1.484-3.546-3.791-5.52-5.372h0c-1.313-1.054-2.33-1.8-2.33-1.8a63.136,63.136,0,0,0-.942-8.013,4.074,4.074,0,0,0,.2-1.261c.067-2.923-.831-3.843-.831-3.843a2.063,2.063,0,0,0-2.04-.445,3.636,3.636,0,0,0-1.343.564,3.71,3.71,0,0,0-2.523,2.471c-.794,2.508-.208,6.017-.037,8.688,0,.4.037.875.037,1.395h0a70.543,70.543,0,0,1-1.039,11.455c-.482,2.686-1.135,6.618-1.662,9.185a.143.143,0,0,1,0,.052c-.386,1.87-.742,2.968-.853,2.359-.334-1.484-4.318-10.758-4.823-14.267s-2.5-8.851-3.339-11.522c-.653-2.085-.69-5.09-2.107-6.143h0a2.1,2.1,0,0,0-1.558-.364,6.95,6.95,0,0,0-1.061.193,5.489,5.489,0,0,0-.742.111,2.842,2.842,0,0,0-1.929,1.061,2.968,2.968,0,0,0,0,1.373,9.974,9.974,0,0,0-.349,2.1c-.237,3,.9,8.517,1.565,12.027a74.076,74.076,0,0,1,.838,9.853c.163,2.834,1.484,8.851.831,12.019-.638,3.042-4.185,9.437-4.5,9.986v.037a25.44,25.44,0,0,1-.163-5.846,22.555,22.555,0,0,0-.668-6.514c1.84-2.337,1.484-8.347.5-10.35a4.4,4.4,0,0,0-.742-1.016,6.032,6.032,0,0,0-1.009-.861,4.514,4.514,0,0,0,.134-.5l-2.433-.371c-.534,1.246-1.432,4.452-1.907,6.121a19.919,19.919,0,0,1-1.751,3.635c-1.484,2.174-2.337,3.843-1.417,6.343s-1,11.129,0,14.364a99.5,99.5,0,0,0,5.757,13.533c2,3.754,5.55,12.019,9.059,19.29s-3.71,67.656-3.71,67.656l31.829-4.555s.208-63.858.208-70.372,9.348-26.383,9.185-27.718c.668-1.335,3-11.025,3.71-14.03S438.807,320.871,437.309,318.7Zm-14.03-4.5c-.185.92-.979,3.457-1.654,5.55,0-2.545-.163-10.135,0-12.732C421.609,307.012,423.613,312.525,423.279,314.194Z" transform="translate(-119.246 -134.744)"/><path class="n" d="M451.108,326.437c-.668,3-2.968,12.694-3.673,14.03s-3.346,2.834-4.682,2.5L439.92,336.7s.668-6.922,1-7.983v-.1c.378-1.61,1.8-14.2,1.8-14.2s2.367,1.6,4.362,3.309a14.555,14.555,0,0,1,2.322,2.367C450.908,322.267,451.746,323.432,451.108,326.437Z" transform="translate(-134.048 -142.721)"/><path class="o" d="M447.435,317.719c-.742,2.612-3.954,7.612-6.165,10.891.378-1.61,1.8-14.2,1.8-14.2S445.44,316.013,447.435,317.719Z" transform="translate(-134.396 -142.721)"/><path class="n" d="M422.49,358.121c0,6.514-.208,70.372-.208,70.372l-31.829,4.555s7.189-60.393,3.71-67.656-7.056-15.536-9.059-19.29a99.489,99.489,0,0,1-5.757-13.533c-1-3.257.913-11.871,0-14.364s-.089-4.17,1.417-6.343,3.509-8.517,3.673-9.356c.141-.675,2.048,0,3.294,1.328a4.4,4.4,0,0,1,.742,1.016c1.009,2,1.343,8.013-.5,10.387a22.551,22.551,0,0,1,.668,6.514,25.44,25.44,0,0,0,.163,5.846v-.037c.312-.549,3.858-6.944,4.5-9.986.668-3.168-.668-9.185-.831-12.019a74.046,74.046,0,0,0-.868-9.89c-.668-3.509-1.8-9.022-1.565-12.027s1.068-4.511,4.073-4.845a2.1,2.1,0,0,1,1.558.364h0c1.417,1.054,1.484,4.058,2.107,6.143.838,2.671,2.842,8.013,3.339,11.522s4.489,12.769,4.823,14.267c.141.631.467-.49.853-2.359a.141.141,0,0,0,0-.052c.527-2.567,1.18-6.5,1.662-9.185a70.558,70.558,0,0,0,1.039-11.455h0c0-.519,0-.994-.037-1.395-.171-2.671-.742-6.18.037-8.688s4.3-4.17,5.809,0,1.335,7.686,1.669,10.528,1.165,6.848,1,9.853.044,12.694,0,13.525,2.649,6.344,4.986,9.853,8.517,7.352,8.688,8.688S422.49,351.614,422.49,358.121Z" transform="translate(-118.317 -132.657)"/><path class="n" d="M442.056,309.886a94.284,94.284,0,0,0-2,13.355c-.171,4.1-3.175,10.023-4.845,7.182S430.2,318.73,430.2,318.73h0c.134-.408,2.337-7.041,2.664-8.658s-1.669-7.182-1.669-7.182L430.2,293s1.016.742,2.33,1.8h0c1.974,1.58,4.615,3.865,5.52,5.372C439.548,302.7,443.058,306.355,442.056,309.886Z" transform="translate(-131.539 -137.195)"/><path class="o" d="M432.871,310.064c.334-1.669-1.669-7.182-1.669-7.182l-1-9.882s1.016.742,2.33,1.8h0c0,2.226.156,5.446.156,5.446l2.6,8.02-5.075,10.387C430.341,318.307,432.544,311.674,432.871,310.064Z" transform="translate(-131.539 -137.195)"/><path class="p" d="M383.31,318.639s3.992-3.821,4.644-6.878l-2.441-.371C384.779,313.134,383.31,318.639,383.31,318.639Z" transform="translate(-119.438 -141.941)"/><path class="p" d="M394.3,281.387c-.415,1.291.957,4.63,1.922,5.283,1.84,1.246,3.138-.66,3.524-3.131s-.4-3.22-.4-3.22a8.339,8.339,0,0,0-3.124,0A2.879,2.879,0,0,0,394.3,281.387Z" transform="translate(-122.256 -133.884)"/><path class="p" d="M422.976,275.681c-.378,1.172.875,4.222,1.751,4.815,1.677,1.135,2.819.786,2.871-1.484.067-2.916-.831-3.843-.831-3.843a2.055,2.055,0,0,0-2.04-.445,2.656,2.656,0,0,0-1.751.957Z" transform="translate(-129.657 -132.452)"/><path class="o" d="M406.828,298.112c.5,3.509,4.489,12.769,4.823,14.267,0,0-6.559-9.549-6.93-11.507s-1.669-9.356-1.914-12.212c-.163-1.929-1.677-8.28-1.677-8.28l.245.059h0c1.417,1.054,1.484,4.058,2.107,6.143C404.328,289.261,406.331,294.6,406.828,298.112Z" transform="translate(-124.037 -133.938)"/><path class="o" d="M420.368,301.121c-.267,1.721-2.582,8.339-3.888,11.96.527-2.567,1.18-6.5,1.662-9.185a70.55,70.55,0,0,0,1.039-11.455C419.871,295.875,420.575,299.837,420.368,301.121Z" transform="translate(-127.998 -137.051)"/><path class="o" d="M390.728,337.447c-2.471,4.785-1.914,6.818-1.914,6.818-1.417-3.9-.445-8.532-.475-11.619a14.386,14.386,0,0,0-1.7-6.039,15.417,15.417,0,0,0,2.174-5.624c.319-1.773.638-4.771.868-7.264a4.4,4.4,0,0,1,.742,1.016c1.009,2,1.343,8.013-.5,10.387a22.551,22.551,0,0,1,.668,6.514,25.445,25.445,0,0,0,.134,5.809Z" transform="translate(-120.298 -142.542)"/><path class="q" d="M401.437,377.95H370.38v23.512l29.269,6.292Z" transform="translate(-95.587 -140.934)"/><line class="r" y2="24.343" transform="translate(278.644 237.016)"/><line class="r" y2="24.343" transform="translate(283.095 237.016)"/><line class="r" y2="24.343" transform="translate(287.547 237.016)"/><line class="r" y2="24.343" transform="translate(291.998 237.016)"/><line class="r" y2="24.343" transform="translate(296.45 237.016)"/><line class="r" y2="24.343" transform="translate(300.901 237.016)"/><path class="s" d="M394.958,424.15h27.748a4.318,4.318,0,0,1,4.318,4.452c-.453,16.1-1.951,70.542-1.521,71.544.5,1.172-41.333-1.143-41.333-1.143l6.484-70.913A4.325,4.325,0,0,1,394.958,424.15Z" transform="translate(-119.66 -171.041)"/><path class="f" d="M118.291,310.812c1.64-2.092,1.365-3.94.594-6.47a20.521,20.521,0,0,1-.556-4c.082-1.766.193-5.06.074-6.41l-2.434-.393v.512a5.791,5.791,0,0,0-1.224.512,4.228,4.228,0,0,0-.987.742c-1.58,1.6-3.71,7.212-2.708,10a22.355,22.355,0,0,0-2.634,5.995,25.5,25.5,0,0,1-1.951,5.513h0c-.126-.623-1.536-7.8-1.209-10.884.341-3.22,3.457-8.54,4.452-11.188a69.132,69.132,0,0,1,3.821-9.118c1.706-3.131,4.452-8.035,5.193-10.966a10.383,10.383,0,0,0,.312-2.1,3.071,3.071,0,0,0,.43-1.313s-.156-.8-1.484-1.6a5.94,5.94,0,0,0-.69-.341,7.381,7.381,0,0,0-.942-.5,2.144,2.144,0,0,0-1.6-.133h0c-1.677.571-2.634,3.413-3.9,5.194-1.617,2.285-5.193,6.752-6.677,9.942s-8.161,10.773-8.97,12.093c-.326.556-.3-.608-.089-2.508a.126.126,0,0,1,0-.052c.282-2.6.868-6.551,1.232-9.252a70.773,70.773,0,0,1,2.53-11.218h0c.156-.5.312-.95.46-1.321.987-2.485,2.619-5.646,2.634-8.28a3.71,3.71,0,0,0-1.647-3.124,3.509,3.509,0,0,0-1.1-.95,2.055,2.055,0,0,0-2.115-.252s-1.143.6-1.974,3.4a3.925,3.925,0,0,0-.193,1.261,61.265,61.265,0,0,0-3.361,7.338c-1.187,2.6-3.213,6.158-3.977,9.074-.542,2.07-2.315,7.323-3.376,10.454,0-.742.074-1.439.1-2.07a71.745,71.745,0,0,1,1.543-11.4h0c.111-.5.23-.965.349-1.35.742-2.567,2.114-5.854,1.9-8.473a3.778,3.778,0,0,0-.237-1.039A3.242,3.242,0,0,0,85.713,264a1.951,1.951,0,0,0-1.677,0,3.124,3.124,0,0,0-.979,1.091,6.337,6.337,0,0,0-.586.742c-2.389,3.71-3.012,7.189-3.977,9.89s-2.664,6.41-3.175,9.378c-.223,1.306-.809,3.865-1.41,6.388-.067-2.7,0-5.06,0-5.06,0-.5.312-3.227.364-3.606.3-2.389.786-4.837.371-7.152h0a1.191,1.191,0,0,0-.089-.445,3.858,3.858,0,0,0-.438-1.068,2.367,2.367,0,0,0,.163-1.024s-.23-.742-1.536-1.284a2.07,2.07,0,0,0-2.085.059s-.89.623-1.41,2.968h0c-1.632,3.917-1.706,7.278-2.181,9.979s-1.484,6.492-1.528,9.371,1.484,15.937,1.484,16.055h0c-.564,1.217,0,19.03-2.033,25.226-.445,1.38-1.758,5.475-3.524,11l-1.617-.519-4.162,16.07a4.326,4.326,0,0,0-3.628,3.079C47.54,380.6,29.178,453.8,28.466,454.619c-.838.927,39.715,11.567,39.715,11.567l18.674-90.4a4.3,4.3,0,0,0-2.419-4.852l4.956-15.365-1.744-.556a13.629,13.629,0,0,1,2.077-3.836c5.572-5.846,11.485-12.613,14.549-15.58a99.514,99.514,0,0,0,9.645-11.129C115.827,321.688,116.651,312.919,118.291,310.812Z" transform="translate(-27.859 -128.357)"/><path class="n" d="M88.7,304.824l.045-.082-.082.163c-.631.334-2.545,1.3-3.457,1.729-.512.156-1.009.312-1.528.453-1.484.415-3.064.742-4.615,1.068,0,0-1.484-13.162-1.484-16.055s1.046-6.677,1.528-9.371.549-6.062,2.181-9.972,4.741-2.1,5.312.341a3.544,3.544,0,0,1,.089.445h0c.415,2.315-.067,4.763-.371,7.152-.052.378-.341,3.109-.364,3.606a91.911,91.911,0,0,0,.26,9.467c.141,1.35.312,3.034.482,4.689.156,1.484.312,3.012.467,4.2a.074.074,0,0,0,0,.052A2.3,2.3,0,0,0,88.7,304.824Z" transform="translate(-40.538 -131.384)"/><path class="n" d="M69.4,328.9c-2,6.2-21.4,67.033-21.4,67.033l28.891,14.1s11.708-59.688,17.272-65.52,11.485-12.613,14.549-15.581a99.513,99.513,0,0,0,9.645-11.129c1.951-2.8,2.775-11.567,4.452-13.674s1.365-3.94.594-6.47-.742-9.185-.616-10.031c.067-.69-1.944-.653-3.546.252a4.228,4.228,0,0,0-.987.742c-1.58,1.6-3.71,7.212-2.708,10a22.355,22.355,0,0,0-2.634,5.995,25.5,25.5,0,0,1-1.951,5.513h0c-.134-.623-1.543-7.8-1.217-10.884.341-3.22,3.457-8.54,4.452-11.188a69.127,69.127,0,0,1,3.821-9.118c1.706-3.131,4.489-8.028,5.193-10.966s.371-4.622-2.389-5.861a2.144,2.144,0,0,0-1.6-.134h0c-1.677.571-2.634,3.413-3.9,5.194-1.617,2.285-5.193,6.752-6.714,9.942s-8.161,10.773-8.97,12.093c-.326.556-.3-.608-.089-2.508a.126.126,0,0,1,0-.052c.282-2.6.868-6.551,1.232-9.252a70.771,70.771,0,0,1,2.53-11.218h0c.156-.5.312-.95.46-1.321.987-2.485,2.619-5.646,2.634-8.28s-2.819-5.29-5.527-1.781-3.635,6.907-4.823,9.5-3.213,6.158-3.977,9.074-3.94,12.064-4.177,12.865-4.452,5.193-7.768,7.842-8.1,8.362-8.673,9.578S71.393,322.7,69.4,328.9Z" transform="translate(-32.904 -126.901)"/><path class="o" d="M88.837,299.544a21.471,21.471,0,0,1-3.042-9.534c-.134-1.439.69-5.75,1.3-8.043.326-1.209,1.1-4.385,1.736-7.338.415,2.315-.067,4.763-.371,7.152-.052.378-.341,3.109-.364,3.606a91.919,91.919,0,0,0,.26,9.467C88.5,296.205,88.666,297.9,88.837,299.544Z" transform="translate(-42.654 -132.454)"/><path class="n" d="M98.722,295.051l-.052.067c-.742.237-2.968.875-4,1.165l-1.721.2c-1.706.156-3.42.245-5.142.282q-2.27.044-4.548,0a17.679,17.679,0,0,0,2.56-3.6c.156-.816,2.537-10.209,3.042-13.177s2.226-6.677,3.175-9.378,1.588-6.158,3.977-9.89c2.077-3.227,4.637-1.862,5.423.26a3.584,3.584,0,0,1,.237,1.039c.215,2.619-1.135,5.935-1.9,8.473-.119.386-.237.846-.349,1.35h0a71.745,71.745,0,0,0-1.521,11.4c-.126,2.716-.371,6.677-.43,9.3h0a.067.067,0,0,0,0,.052,2.471,2.471,0,0,0,1.246,2.463Z" transform="translate(-42.003 -128.369)"/><path class="p" d="M147.908,306.616s-2.626-4.867-2.307-7.976l2.434.393C148.2,300.918,147.908,306.616,147.908,306.616Z" transform="translate(-58.085 -138.651)"/><path class="p" d="M148.24,267.654c0,1.358-2.33,4.11-3.45,4.452-2.129.623-2.782-1.588-2.4-4.058s1.373-2.968,1.373-2.968a8.271,8.271,0,0,1,2.968.957C148.084,266.853,148.24,267.654,148.24,267.654Z" transform="translate(-57.237 -129.99)"/><path class="p" d="M122.866,253.635c0,1.232-2.122,3.71-3.146,4.044-1.944.564-2.923-.119-2.27-2.307.831-2.8,1.974-3.4,1.974-3.4a2.055,2.055,0,0,1,2.077.2C122.725,252.893,122.866,253.635,122.866,253.635Z" transform="translate(-50.775 -126.558)"/><path class="p" d="M105.256,260.455c0,1.232-2.122,3.71-3.146,4.043-1.944.564-2.923-.119-2.27-2.307.831-2.8,1.966-3.4,1.966-3.4a2.07,2.07,0,0,1,2.085.2C105.1,259.72,105.256,260.455,105.256,260.455Z" transform="translate(-46.23 -128.318)"/><path class="p" d="M87.568,270.656c.156,1.224-1.647,3.984-2.619,4.4-1.862.8-2.916.252-2.545-2,.482-2.879,1.543-3.621,1.543-3.621a2.07,2.07,0,0,1,2.085-.059C87.338,269.943,87.568,270.656,87.568,270.656Z" transform="translate(-41.764 -131.032)"/><path class="o" d="M126.51,281.8c-1.558,3.183-8.161,10.773-8.97,12.093,0,0,9.178-7.071,10.127-8.822s4.452-8.391,5.572-11.032c.742-1.788,1.246-3.969,0-2.181C131.607,274.143,128.061,278.61,126.51,281.8Z" transform="translate(-50.85 -131.567)"/><path class="o" d="M117.338,278.644c-.275,1.721-.1,8.725,0,12.576.282-2.6.868-6.551,1.232-9.252a70.772,70.772,0,0,1,2.53-11.218C119.423,273.807,117.539,277.361,117.338,278.644Z" transform="translate(-50.76 -131.453)"/><path class="o" d="M132.675,322.268c.883,5.312-.275,7.078-.275,7.078,2.545-3.272,3.042-7.983,4.021-10.914a14.459,14.459,0,0,1,3.472-5.194,15.3,15.3,0,0,1-.341-6.017c.237-1.788.853-4.741,1.4-7.182a4.229,4.229,0,0,0-.987.742c-1.58,1.6-3.71,7.212-2.708,10a22.355,22.355,0,0,0-2.634,5.995A25.5,25.5,0,0,1,132.675,322.268Z" transform="translate(-54.685 -139.012)"/><path class="q" d="M39.676,344.88l29.551,9.534L62.008,376.79l-29.788-3Z" transform="translate(-8.317 -132.399)"/><line class="r" x1="7.471" y2="23.163" transform="translate(49.766 220.835)"/><line class="r" x1="7.471" y2="23.17" transform="translate(45.53 219.462)"/><line class="r" x1="7.471" y2="23.163" transform="translate(41.294 218.097)"/><line class="r" x1="7.471" y2="23.163" transform="translate(37.057 216.732)"/><line class="r" x1="7.471" y2="23.163" transform="translate(32.821 215.367)"/><line class="r" x1="7.471" y2="23.163" transform="translate(28.584 214.002)"/><path class="s" d="M83.139,399.642l-26.413-8.525a4.311,4.311,0,0,0-5.468,2.9c-4.518,15.462-22.881,88.653-23.593,89.476-.838.964,39.686,11.6,39.686,11.6l18.674-90.4A4.311,4.311,0,0,0,83.139,399.642Z" transform="translate(-27.653 -162.462)"/><path class="o" d="M101.755,293.289c-.082-.5-1.306-8.592-1.721-11s.994-7.961,1.484-9.044c.371-.742,2.842-7.709,4.2-11.53a3.584,3.584,0,0,1,.237,1.039c.215,2.619-1.135,5.935-1.9,8.473-.119.386-.237.846-.349,1.35h0a71.74,71.74,0,0,0-1.491,11.411C102.059,286.708,101.814,290.67,101.755,293.289Z" transform="translate(-46.313 -129.123)"/></g></g><text class="t" transform="translate(191.185 23.422)"><tspan x="0" y="0">thulsee</tspan></text></g><g transform="translate(4867.214 4637.372)"><g transform="translate(0)"><path class="u" d="M2.952,0h157.46a2.952,2.952,0,1,1,0,5.9H2.952a2.952,2.952,0,0,1,0-5.9Z" transform="translate(0 22.344)"/><text class="v" transform="translate(0.581 37.064)"><tspan x="0" y="0">Low</tspan></text><text class="v" transform="translate(146.131 37.064)"><tspan x="0" y="0">High</tspan></text><text class="v" transform="translate(73.762 36.249)"><tspan x="0" y="0">Normal</tspan></text><text class="v" transform="translate(44.692 49.799)"><tspan x="0" y="0">2.50</tspan></text><text class="v" transform="translate(109.176 48.646)"><tspan x="0" y="0">5.00</tspan></text><text class="v" transform="translate(75.42 8)"><tspan x="0" y="0">3.25</tspan></text><path class="w" d="M3.855,11.226C.6,6.513,0,6.029,0,4.3a4.3,4.3,0,1,1,8.593,0c0,1.732-.6,2.216-3.855,6.93a.537.537,0,0,1-.883,0Z" transform="translate(78.722 11.714)"/><line class="x" y2="26.173" transform="translate(53.055 15.041)"/><line class="x" y2="26.173" transform="translate(116.071 15.041)"/></g></g><g transform="translate(4978.699 4688.914)"><g class="ag" transform="matrix(1, 0, 0, 1, -243.7, -79.91)"><rect class="h" width="160.334" height="68.773" rx="5" transform="translate(243.7 79.91)"/></g><g class="y" transform="translate(5.682 6.037)"><rect class="af" width="146.934" height="39.243" rx="5"/><rect class="b" x="0.5" y="0.5" width="145.934" height="38.243" rx="4.5"/></g><g transform="translate(45.78 12.601)"><text class="z" transform="translate(0 10)"><tspan x="0" y="0">Your Level is</tspan></text><text class="aa" transform="translate(0 22.134)"><tspan x="0" y="0">Normal</tspan></text><text class="ab" transform="translate(76.545 21.134)"><tspan x="0" y="0">3.25</tspan></text></g><text class="z" transform="translate(19.337 57.395)"><tspan x="0" y="0" xml:space="preserve">Normal Range      </tspan><tspan class="ac" y="0" xml:space="preserve"> 2.50 to 5.00</tspan></text><g transform="translate(13.77 15.384)"><circle class="ad" cx="11.134" cy="11.134" r="11.134" transform="translate(0 0)"/><path class="ae" d="M16.662,8.612A8.05,8.05,0,1,1,8.612.563,8.05,8.05,0,0,1,16.662,8.612ZM7.681,12.875,13.654,6.9a.519.519,0,0,0,0-.734l-.734-.734a.519.519,0,0,0-.734,0L7.314,10.3,5.04,8.03a.519.519,0,0,0-.734,0l-.734.734a.519.519,0,0,0,0,.734l3.376,3.376a.519.519,0,0,0,.734,0Z" transform="translate(2.773 2.165)"/></g></g></g></svg>