<svg xmlns="http://www.w3.org/2000/svg" width="47.482" height="47.482" viewBox="0 0 47.482 47.482"><defs><style>.a{fill:#edf7ee;stroke:#22ab4b;stroke-width:1.5px;}.b{fill:#22ab4b;}</style></defs><g transform="translate(-215.643 -349.779)"><path class="a" d="M100.3.135a.294.294,0,0,0-.494,0c-.164.293-4,7.19-4,9.2a4.246,4.246,0,1,0,8.492,0C104.294,7.324,100.459.427,100.3.135Z" transform="translate(156.619 376.184)"/><g transform="translate(243.388 349.779) rotate(45)"><path class="b" d="M2.917,19.373a.967.967,0,1,0,.267,1.341A.967.967,0,0,0,2.917,19.373Zm10.4,19.864c6.392,0,9.229-3.713,13.41-7.894a4.053,4.053,0,0,0-1.93-6.805,4.053,4.053,0,0,0-1.849-6.884A4.049,4.049,0,0,0,21.1,10.77c3.918-3.918,5.046-4.577,5.046-6.724A4.057,4.057,0,0,0,19.227,1.18l-1.48,1.48c-3.956-3.953-8.461-2.9-9.213-.281C7.745,5.128,10.5,5.2,10.5,8.215a4.072,4.072,0,0,1-1.2,2.9L3.9,16.5a.965.965,0,1,0,1.365,1.365L18.428,4.709l2.164-2.164a2.134,2.134,0,0,1,3.624,1.5c0,1.211.436.443-13.861,14.74A.965.965,0,0,0,11.72,20.15l6.944-6.944a2.123,2.123,0,0,1,3,3l-6.314,6.314a.965.965,0,0,0,.683,1.647c.643,0,.742-.344,4.479-4.079a2.174,2.174,0,0,1,3,0,2.123,2.123,0,0,1,0,3L19.09,27.52a.965.965,0,0,0,.682,1.648c.621,0,.859-.459,2.591-2.191a2.133,2.133,0,0,1,3.624,1.5c0,1.144-.336,1.215-4.615,5.494-7.8,7.794-21.3.93-19.249-10.138a.965.965,0,1,0-1.9-.352,13.322,13.322,0,0,0,13.1,15.755ZM16.38,4.026,12.412,7.995A6,6,0,0,0,10.66,3.953,1.076,1.076,0,0,1,11.2,2.146c2.265-.521,3.747.45,5.178,1.88Z" transform="translate(0)"/></g></g></svg>