<svg xmlns="http://www.w3.org/2000/svg" width="24" height="24" viewBox="0 0 24 24">
  <g id="Icon_feather-instagram" data-name="Icon feather-instagram" transform="translate(1 1)">
    <path id="Path_3" data-name="Path 3" d="M8.5,3h11A5.5,5.5,0,0,1,25,8.5v11A5.5,5.5,0,0,1,19.5,25H8.5A5.5,5.5,0,0,1,3,19.5V8.5A5.5,5.5,0,0,1,8.5,3Z" transform="translate(-3 -3)" fill="none" stroke="#22ab4b" stroke-linecap="round" stroke-linejoin="round" stroke-width="2"/>
    <path id="Path_4" data-name="Path 4" d="M20.817,15.69a4.4,4.4,0,1,1-3.707-3.707A4.4,4.4,0,0,1,20.817,15.69Z" transform="translate(-5.417 -5.383)" fill="none" stroke="#22ab4b" stroke-linecap="round" stroke-linejoin="round" stroke-width="2"/>
    <path id="Path_5" data-name="Path 5" d="M26.25,9.75h0" transform="translate(-9.2 -4.8)" fill="none" stroke="#22ab4b" stroke-linecap="round" stroke-linejoin="round" stroke-width="2"/>
  </g>
</svg>
