<svg xmlns="http://www.w3.org/2000/svg" width="513.902" height="489.968" viewBox="0 0 513.902 489.968"><defs><style>.a{opacity:0.3;}.b,.c{fill:#32c059;opacity:0.8;}.c,.d{mix-blend-mode:darken;isolation:isolate;}.d{fill:#248bc8;opacity:0.5;}</style></defs><g class="a" transform="translate(-638.098 -374)"><path class="b" d="M5191.822-53.077s1.158-75.81,48.611-119.5,119.214-35.88,119.214-35.88-15.913,88.469-57.872,127.315C5240.721-30.8,5191.822-53.077,5191.822-53.077Z" transform="translate(6023.119 594.651) rotate(180)"/><path class="c" d="M10.237,13.523s-38.977,81.118,35.18,149.4S272.5,256.342,272.5,256.342s-34-103.73-82.368-185.379C130.714-41.674,10.237,13.523,10.237,13.523Z" transform="translate(813.396 650.175) rotate(-61)"/><path class="d" d="M5.927,163.024s-25.776-58.68,30.179-111.3C85.351,5.883,180.084,0,180.084,0s-1.2,48.786-33.324,103.6C107.3,179.225,5.927,163.024,5.927,163.024Z" transform="matrix(-0.358, 0.934, -0.934, -0.358, 984.475, 700.106)"/><path class="d" d="M5.927,163.024s-25.776-58.68,30.179-111.3C85.351,5.883,180.084,0,180.084,0s12.554,30.69-19.568,85.507C121.06,161.129,5.927,163.024,5.927,163.024Z" transform="matrix(-0.899, 0.438, -0.438, -0.899, 906.459, 791.787)"/><path class="d" d="M3.093,1.8S-18.329,75.629,51.577,140.65c61.521,56.645,169.092,62.6,169.092,62.6s-1.5-60.284-41.632-128.02C129.744-18.219,3.093,1.8,3.093,1.8Z" transform="translate(828.686 651.314) rotate(-95)"/><path class="c" d="M2.043,14.291S-14.571,97.364,46.951,154.009s172.668,61.726,172.668,61.726S194.2,123.725,154.067,55.988C104.773-37.456,2.043,14.291,2.043,14.291Z" transform="translate(825.874 662.028) rotate(-149)"/></g></svg>