<svg xmlns="http://www.w3.org/2000/svg" width="174.15" height="153.483" viewBox="0 0 174.15 153.483"><defs><style>.a{fill-rule:evenodd;opacity:0.1;}</style></defs><path class="a" d="M7.077,114.65a20.768,20.768,0,0,1-.151-29.52L85.144,6.911a20.768,20.768,0,0,1,29.37,0L163.49,55.887a20.768,20.768,0,0,1,.039,29.331l-54.956,55.249h59.5a6.923,6.923,0,1,1,0,13.845H15.775a6.923,6.923,0,1,1,0-13.845H33.429Zm46.136,25.817H89.045l64.668-65.013a6.923,6.923,0,0,0-.013-9.777L105.419,17.4,91.939,86.555a6.924,6.924,0,0,1-5.471,5.47L17.492,105.471ZM20.943,90.692,90.605,21.03l-11.363,58.3Z" transform="translate(-0.843 -0.828)"/></svg>