<svg xmlns="http://www.w3.org/2000/svg" width="18.857" height="24" viewBox="0 0 18.857 24"><defs><style>.a{fill:#0D2E3A;}</style></defs><g transform="translate(-5 -2)"><path class="a" d="M23.857,14.857a.857.857,0,0,0-1.714,0,7.714,7.714,0,1,1-15.429,0,.857.857,0,1,0-1.714,0,9.429,9.429,0,0,0,8.571,9.429v2.571a.857.857,0,1,0,1.714,0V24.286A9.429,9.429,0,0,0,23.857,14.857Z" transform="translate(0 -1.714)"/><path class="a" d="M15,19.143a6,6,0,0,0,6-6V8A6,6,0,0,0,9,8v5.143A6,6,0,0,0,15,19.143ZM10.714,8a4.286,4.286,0,0,1,8.571,0v5.143a4.286,4.286,0,1,1-8.571,0Z" transform="translate(-0.571)"/></g></svg>