<svg xmlns="http://www.w3.org/2000/svg" width="31.25" height="40" viewBox="0 0 31.25 40"><defs><style>.a{fill:#22ab4b;}</style></defs><g transform="translate(12.422 29.7)"><path class="a" d="M276.874,382a.874.874,0,1,1-.874.874A.874.874,0,0,1,276.874,382Z" transform="translate(-276 -382.001)"/></g><g transform="translate(0 0)"><path class="a" d="M58.3,32.97l.64-1.921A10.843,10.843,0,0,1,56,23.594a11.034,11.034,0,0,1,7.907-10.567L61.992,9.71a.781.781,0,0,1,.286-1.067l.677-.391L62.174,6.9l-.677.391A.781.781,0,0,1,60.43,7L58.867,4.3a.781.781,0,0,1,.286-1.067L64.566.105a.781.781,0,0,1,1.067.286L67.2,3.1a.781.781,0,0,1-.286,1.067l-.677.391.781,1.353.677-.391a.781.781,0,0,1,1.067.286l5.859,10.149.677-.391a.781.781,0,0,1,1.067.286l1.563,2.706a.781.781,0,0,1-.286,1.067l-8.119,4.687a.781.781,0,0,1-1.067-.286l-1.562-2.706a.781.781,0,0,1,.286-1.067l.677-.391-.577-1a4.717,4.717,0,0,0-5.025,4.735,4.637,4.637,0,0,0,.627,2.342,7.284,7.284,0,0,1,7.787.783h7.624a3.886,3.886,0,0,1,3.494,2.159l.7,1.4a.781.781,0,0,1-.7,1.13H73.49l.521,1.562h10.9a2.346,2.346,0,0,1,2.344,2.344v3.906a.781.781,0,0,1-.781.781H56.781A.781.781,0,0,1,56,39.219V35.313A2.346,2.346,0,0,1,58.3,32.97ZM64.67,1.849,60.611,4.193l.781,1.353L65.452,3.2Zm.209,3.487-1.353.781.781,1.353,1.353-.781Zm4.534,17.229,6.766-3.906L75.4,17.306,69.31,20.821h0l-.676.39ZM69.2,19.078l4.059-2.344L67.8,7.261,64.756,9.016l.221-.128-1.242.717Zm-2.824-1.766-1.665-2.885a9.411,9.411,0,0,0-7.153,9.167,9.284,9.284,0,0,0,1.992,5.772,7.325,7.325,0,0,1,2.01-2.578,6.182,6.182,0,0,1-.877-3.195A6.294,6.294,0,0,1,66.381,17.311Zm-.224,9.408a5.723,5.723,0,0,0-5.428,3.912l-.779,2.338H72.364l-.779-2.337A5.725,5.725,0,0,0,66.156,26.719Zm14.361,3.125a2.429,2.429,0,0,0-2.23-1.57H72.135a7.354,7.354,0,0,1,.826,1.57ZM57.563,38.438H85.687V35.313a.782.782,0,0,0-.781-.781H58.344a.782.782,0,0,0-.781.781Z" transform="translate(-56 0)"/><path class="a" d="M345.282,116.1l-.145.084Z" transform="translate(-336.61 -107.035)"/><path class="a" d="M345.077,116.065l-.006,0Z" transform="translate(-336.41 -106.998)"/><path class="a" d="M343.927,115.4l-.008,0Z" transform="translate(-335.171 -106.385)"/><path class="a" d="M344.108,115.456l-.092.053Z" transform="translate(-335.352 -106.437)"/><path class="a" d="M346.819,117.06l-.024.014Z" transform="translate(-338.286 -107.915)"/><path class="a" d="M350.954,119.457l-.008,0Z" transform="translate(-342.746 -110.125)"/><path class="a" d="M350.717,119.312l-.022.013Z" transform="translate(-342.488 -109.991)"/><path class="a" d="M351.039,119.507Z" transform="translate(-342.838 -110.171)"/><path class="a" d="M349.314,118.5l-.019.011Z" transform="translate(-340.976 -109.246)"/><path class="a" d="M349.614,118.628l-.1.06Z" transform="translate(-341.287 -109.362)"/><path class="a" d="M349,118.317l-.028.016Z" transform="translate(-340.635 -109.074)"/><path class="a" d="M347.238,117.22l-.166.1Z" transform="translate(-338.715 -108.065)"/></g><g transform="translate(6.12 29.7)"><path class="a" d="M316.874,382h3.494a.874.874,0,0,1,0,1.747h-3.494a.874.874,0,0,1,0-1.747Z" transform="translate(-316 -382.001)"/></g></svg>