<svg xmlns="http://www.w3.org/2000/svg" xmlns:xlink="http://www.w3.org/1999/xlink" width="448.93" height="461.066" viewBox="0 0 448.93 461.066"><defs><style>.a{fill:#e5faec;}.b,.p,.s{fill:none;stroke-miterlimit:10;}.b{stroke:#dae4d9;stroke-width:1.08px;}.c{fill:#86a5a1;}.d{fill:#678991;}.e{fill:#5a777e;}.f{fill:#4c727b;}.g{fill:#f9c88c;}.h{fill:#22ab4b;}.i{fill:#007b25;}.j{fill:#e8b07f;}.k{fill:#fbca8e;}.l{fill:#432e43;}.m{fill:url(#a);}.n{fill:#a56052;}.o{fill:url(#b);}.p{stroke:#643619;stroke-width:0.61px;}.p,.s{stroke-linecap:round;}.q{fill:url(#c);}.r{fill:#f4a29d;}.s{stroke:#b45982;stroke-width:1.21px;}</style><linearGradient id="a" x1="32.669" y1="-10.286" x2="32.029" y2="-9.809" gradientUnits="objectBoundingBox"><stop offset="0" stop-color="#d38278"/><stop offset="1" stop-color="#f6b9ad" stop-opacity="0"/></linearGradient><linearGradient id="b" x1="24.819" y1="-7.196" x2="25.035" y2="-6.41" gradientUnits="objectBoundingBox"><stop offset="0" stop-color="#da9c68"/><stop offset="1" stop-color="#da9c68" stop-opacity="0"/></linearGradient><linearGradient id="c" x1="1002.945" y1="-278.226" x2="1003.164" y2="-277.44" xlink:href="#b"/></defs><g transform="translate(2.354 51.756)"><circle class="a" cx="158.72" cy="158.72" r="158.72" transform="translate(-2.354 172.709) rotate(-45)"/><circle class="b" cx="165.44" cy="165.44" r="165.44" transform="translate(63.39 0.54)"/><circle class="b" cx="165.44" cy="165.44" r="165.44" transform="translate(39.85 6.02)"/><path class="c" d="M356.72,301.92c.94-2.48-8.06-9.3-15.39-14.27-4.68-3.17-10.91-5-12.44-5.45a43.7,43.7,0,0,0-4.65-1c-.22-.28-.42-.54-.62-.77-.2-.55-.4-1.1-.62-1.64a42.571,42.571,0,0,0-6.16-10.55c1,.88,29,18.21,34.17,12.63,4-4.35-5.1-8.56-14-12.16-5.69-2.3-13.3-2.21-15.06-2.32-1.54-.09-5.43.19-6.42.27a45,45,0,0,0-5.76-5.54,66.734,66.734,0,0,0-7.66-4.68c.79.28,45.07,8.73,48,1.26s-10-11.93-22.27-10.78c-6.9.65-19.59,4.76-21.55,5.31-1.78.5-6.23,2.44-7,2.78a42.24,42.24,0,0,0-11-2.72,40.4,40.4,0,0,0-4.4-.24,45.1,45.1,0,0,1,5.76-1.84c1.76-.39,35.58-11.35,37.43-12.37,17.23-9.49,2.49-21.85-19-6.68-3.68,3.1-19.38,15.53-19.54,15.65-1.54,1.12-5.93,4-7.2,5.31a43.47,43.47,0,0,0-13.76,3.12c1-.63,48.25-39.89,28.41-44.43-11.73-2.68-28.39,36.9-29.68,40.26-1.16,3-2,4.94-2.2,5.76a53.559,53.559,0,0,0-12.1,8.49c.83-1,21.82-44.84,7.6-47-16.47-2.47-8.82,47.61-8.76,48.08a62.875,62.875,0,0,0-4.57,4.95,78.517,78.517,0,0,0-4.82,6.46c.39-.72,5.89-31.48-1.08-29.42-7.38,2.17.21,30.21.32,30.57A86,86,0,0,0,233.3,293c-.12.32.39.53.52.23.43-.92.86-1.85,1.3-2.76a102.61,102.61,0,0,1,7.23-12.83c.18,1.1,17.93,15.36,19.9,9.44,2.52-7.55-18.88-9.94-19.67-9.78a69.618,69.618,0,0,1,6-7.63,64.112,64.112,0,0,1,5-4.9c.28.46,4.69,1.74,7,3.85,6.71,6.14,9.67,18.16,14.48,17,5.75-1.37-1.21-17.11-11.26-20.2-1.37-.42-9.21-.82-9.93-.89A50.339,50.339,0,0,1,267.42,256a41.44,41.44,0,0,1,6.37-2c.17.71,2.3,3.07,3.61,5,7.45,10.87,4.82,24.36,9.8,26.63,12.3,5.61,7.5-21.42-6.7-28.67-3-1.55-5.69-2.62-6.55-3a41.06,41.06,0,0,1,16.92-.37,50.57,50.57,0,0,1,13.13,5c-.11,1.19.49,3.37-1,6.59-2.1,6.51-2.58,30.82,3.56,31.77s7.64-6.29,6.3-21.95c-.47-5.55-6.68-14.75-7.56-15.72a40.463,40.463,0,0,1,5.71,4.33,44.76,44.76,0,0,1,11.2,16.06c0,1.55.12,5.05.3,6.53a75.6,75.6,0,0,0,3.89,15.44c3.74,9.54,10.34,13.19,12.16,11.83,4.71-3.51-9.79-24.17-9.79-24.17-.38-1-3-4.92-3.42-5.83.93.86,6.64,7.13,6.75,7.26C337.59,297.43,354.57,307.56,356.72,301.92Z"/><path class="c" d="M322.68,92.83c2.4,1.12.67,12.29-1.15,21-1.15,5.53-4.39,11.15-5.15,12.57-.51.93-1.81,2.8-2.63,4q.06.52.09,1c.24.53.48,1.07.7,1.61a42.7,42.7,0,0,1,2.89,11.86c.07-1.29,8.2-33.25,15.79-32.83,5.93.33,2.28,9.7-1.62,18.48-2.49,5.61-8,10.83-9.21,12.14a55.318,55.318,0,0,1-4.8,4.27,44.229,44.229,0,0,1-.3,8,66.516,66.516,0,0,1-2.25,8.7c.38-.76,26.33-37.62,33.61-34.24,7.11,3.29,1.11,15.5-8.53,23.22-5.4,4.33-17.38,10.2-19.17,11.16-1.64.88-6.19,2.58-7,2.87a41.51,41.51,0,0,1-9,12.83,44.27,44.27,0,0,0,5.41-2.68c1.54-.94,33.47-16.57,35.51-17.12,19-5.16,17,14-9.05,18-4.8.33-24.73,2.31-24.93,2.34-1.88.25-7.06,1.22-8.86,1.18A43.31,43.31,0,0,1,291,188.44c1.18-.26,62.43-4.86,51.31,12.19-6.57,10.09-46.05-6.79-49.31-8.31-3-1.38-4.87-2.17-5.59-2.61a53.57,53.57,0,0,1-14.6,2.3c1.29.16,46.86,17.08,38.12,28.5-10.13,13.23-39.44-28.1-39.72-28.48a65.682,65.682,0,0,1-6.73-.38,80.412,80.412,0,0,1-8-1.29c.79.24,26.12,18.54,19.68,21.9-6.82,3.56-20.84-21.86-21-22.2a85.908,85.908,0,0,1-15-5c-.31-.14-.09-.64.22-.53.95.37,1.9.74,2.85,1.09a103.862,103.862,0,0,0,14.12,4.2c-.64-.92,2.21-23.51,7.74-20.63,7.06,3.69-6.67,20.27-7.34,20.71a68.5,68.5,0,0,0,9.59,1.33,60.4,60.4,0,0,0,7,.05c-.12-.52,2.16-4.5,2.35-7.61.55-9.08-5.68-19.77-1.42-22.3,5.09-3,11,13.15,5.95,22.35-.7,1.26-6.05,7-6.52,7.55a50.849,50.849,0,0,0,15.71-3.33,41.9,41.9,0,0,0,6-3c-.37-.62-.48-3.8-.87-6.08-2.2-13-13.47-20.86-11.46-26,4.94-12.58,20.28,10.19,15.11,25.27-1.11,3.23-2.27,5.83-2.64,6.69A41.17,41.17,0,0,0,309,173.37a50.78,50.78,0,0,0,6-12.71c-.9-.78-2-2.76-5.27-4.07-6-3.22-23.28-20.36-19.52-25.32s9.85-.78,19.78,11.4c3.52,4.32,5.45,15.25,5.49,16.56a40,40,0,0,0,1.09-7.07,44.54,44.54,0,0,0-3.1-19.33c-1.06-1.14-3.43-3.72-4.33-4.91a75.42,75.42,0,0,1-7.93-13.81c-3.95-9.46-1.74-16.67.51-17,5.83-.74,9.77,24.19,9.77,24.19.44,1,1.29,5.59,1.59,6.57.07-1.27-.18-9.75-.19-9.91C312,109.35,317.21,90.27,322.68,92.83Z"/><path class="c" d="M92.25,127.91c.86-2.5,12.15-2,21-1.08,5.62.56,11.56,3.18,13.05,3.79,1,.41,3,1.5,4.22,2.2.35-.08.67-.15,1-.2.5-.3,1-.59,1.53-.86a42.15,42.15,0,0,1,11.49-4.14c-1.3.06-33.94-4.63-34.32-12.22-.31-5.93,9.4-3.3,18.55-.35,5.83,1.88,11.61,6.83,13,7.88,1.24.91,4,3.62,4.75,4.31a45.569,45.569,0,0,1,8-.55,66.5,66.5,0,0,1,8.88,1.32c-.79-.29-40.19-22.2-37.61-29.79,2.52-7.42,15.3-2.75,24,6,4.88,4.91,12,16.2,13.14,17.88,1,1.53,3.22,5.88,3.59,6.63a41.92,41.92,0,0,1,10.18,5,39.91,39.91,0,0,1,3.53,2.63,45.633,45.633,0,0,0-3.24-5.1c-1.1-1.43-20-31.52-20.79-33.48-7.14-18.34,12.1-18.38,18.9,7.07.84,4.75,4.92,24.35,5,24.55.45,1.84,2,6.89,2.11,8.68a43.43,43.43,0,0,1,8.56,11.23c-.38-1.15-11.45-61.56,6.69-52.32,10.72,5.47-1.88,46.52-3,49.93-1.06,3.07-1.64,5.07-2,5.82a54,54,0,0,1,3.7,14.26c0-1.3,12-48.4,24.3-40.92,14.22,8.66-23.76,42.19-24.11,42.51a65.648,65.648,0,0,1,.34,6.73,77.56,77.56,0,0,1-.45,8.05c.17-.81,15.67-27.93,19.7-21.89,4.27,6.4-19.53,23.05-19.85,23.25a85.058,85.058,0,0,1-3.42,15.48c-.1.32-.63.16-.54-.16.26-1,.52-2,.77-3a101.3,101.3,0,0,0,2.68-14.48c-.84.73-23.61.29-21.33-5.51,2.92-7.41,20.86,4.48,21.37,5.11a69.5,69.5,0,0,0,.31-9.68,62.357,62.357,0,0,0-.69-7c-.51.17-4.71-1.68-7.82-1.53-9.09.42-19.06,7.74-22,3.77-3.53-4.73,11.9-12.35,21.59-8.28,1.32.56,7.6,5.28,8.2,5.68a50.72,50.72,0,0,0-5-15.26,41,41,0,0,0-3.58-5.67c-.58.44-3.73.89-6,1.51-12.68,3.57-19.31,15.61-24.59,14.15-13-3.58,8-21.24,23.52-17.7,3.33.76,6,1.64,6.94,1.91A41.4,41.4,0,0,0,173.79,133a50.33,50.33,0,0,0-13.27-4.6c-.68,1-2.53,2.27-3.49,5.68-2.55,6.34-17.78,25.3-23.1,22.09s-1.83-9.72,9.23-20.88c3.93-4,14.59-7,15.89-7.22a40.6,40.6,0,0,0-7.15-.33A44.64,44.64,0,0,0,133,132.9c-1,1.17-3.33,3.8-4.43,4.82a75.119,75.119,0,0,1-12.88,9.35c-9,4.93-16.4,3.5-16.92,1.29-1.36-5.71,23-12.27,23-12.27.95-.55,5.43-1.89,6.36-2.29-1.26.07-9.66,1.21-9.82,1.25C109.81,136.73,90.29,133.62,92.25,127.91Z"/><path class="c" d="M74.89,245.57c0-2.65,10.76-6,19.35-8.13,5.48-1.37,12-.92,13.56-.85a41.49,41.49,0,0,1,4.72.63l.84-.51c.38-.45.76-.89,1.15-1.33a42.581,42.581,0,0,1,9.4-7.79c-1.19.5-33.49,7.15-36.43.14-2.29-5.47,7.73-6.29,17.34-6.62,6.13-.2,13.24,2.49,14.94,3a62.411,62.411,0,0,1,5.93,2.45,45.721,45.721,0,0,1,7.32-3.22,67.867,67.867,0,0,1,8.8-1.77c-.84,0-45.33-7.26-45.48-15.27-.14-7.84,13.47-7.78,24.62-2.48,6.25,3,16.77,11.18,18.41,12.37s5,4.44,5.63,5a41.94,41.94,0,0,1,11.26,1.2,42.7,42.7,0,0,1,4.21,1.29,45.384,45.384,0,0,0-4.78-3.7c-1.51-1-29.52-22.87-30.9-24.46-12.94-14.83,5.15-21.38,20.18.25,2.39,4.18,12.88,21.24,13,21.41,1.05,1.58,4.19,5.82,4.93,7.46a43.271,43.271,0,0,1,11.86,7.66c-.75-.95-31.64-54-11.44-51.49,11.94,1.51,14,44.4,14.06,48,0,3.25.17,5.33.09,6.16a53.44,53.44,0,0,1,8.45,12.14c-.42-1.24-5.11-49.62,9-46.74,16.32,3.32-8.06,47.74-8.28,48.16a62.371,62.371,0,0,1,2.6,6.22,78,78,0,0,1,2.31,7.72c-.12-.81,5.27-31.59,11.11-27.26,6.19,4.57-10.56,28.3-10.79,28.6a85,85,0,0,1,2,15.72.286.286,0,0,1-.57,0q-.12-1.5-.27-3A102.388,102.388,0,0,0,190.64,262c-.55,1-22.11,8.27-21.93,2,.23-8,21.14-2.86,21.83-2.44a68.234,68.234,0,0,0-3-9.21,59.88,59.88,0,0,0-3-6.32c-.41.34-5,0-7.87,1.22-8.41,3.47-15.31,13.75-19.44,11-4.93-3.25,7-15.65,17.51-15.1,1.43.07,8.93,2.38,9.63,2.56a50.36,50.36,0,0,0-9.85-12.67,41.738,41.738,0,0,0-5.29-4.12c-.4.61-3.21,2.1-5.09,3.44-10.73,7.66-12.88,21.23-18.35,21.65-13.47,1.05.32-22.69,16.13-24.63,3.39-.41,6.25-.51,7.18-.55a41.37,41.37,0,0,0-15.77-6.16,50.81,50.81,0,0,0-14,.18c-.31,1.15-1.61,3-1.36,6.52-.25,6.83-8.15,29.83-14.25,28.62s-5-8.53,1.62-22.78c2.35-5.05,11.34-11.56,12.49-12.17a40.91,40.91,0,0,0-6.84,2.11,44.65,44.65,0,0,0-16,11.24c-.56,1.45-1.84,4.7-2.52,6a76,76,0,0,1-9,13.17c-6.79,7.68-14.24,8.84-15.48,6.94-3.21-4.91,17.49-19.34,17.49-19.34.71-.84,4.47-3.62,5.21-4.31-1.16.49-8.68,4.42-8.82,4.5C94.4,247.92,75,251.6,74.89,245.57Z"/><path class="d" d="M209.05,208.06c7.43-10.53,1.32-25.89-16.89-35.84-17-9.31-26.54-3.88-35.6-2.68a66.79,66.79,0,0,1-15.69-.27s-5.78,26.52,8.29,45.8c9,12.37,19.93,22.35,33.33,20.78,7.06-.83,16-8.69,16-15,0-5.55-2.12-8.39-2.12-8.39S204.69,214.24,209.05,208.06Z"/><path class="e" d="M161.3,212.26a40.72,40.72,0,0,1,10.13-10.07,37.16,37.16,0,0,1,3.4-2.07,12.529,12.529,0,0,1,2.8-1.23l-1.85-1.6q-3.39-2.91-6.85-5.72c-1.68.36-3.37.65-5,1.14a34.061,34.061,0,0,0-6.94,2.9,34.68,34.68,0,0,0-10.68,9.31c-.59.77-1.14,1.55-1.66,2.36l-.18-.4c-.06-.13-.12-.27-.17-.41s-.12-.26-.17-.4l.65-.94a35.22,35.22,0,0,1,4.88-5.47,35.77,35.77,0,0,1,13-7.47,27.58,27.58,0,0,1,5.49-1.29q-4.72-3.81-9.61-7.42c-1.75.37-3.56.54-5.3,1a27.53,27.53,0,0,0-6.21,2.67,27.12,27.12,0,0,0-5.36,4.12c-.41.4-.8.81-1.18,1.24v-.14a1.137,1.137,0,0,0-.05-.37,2.788,2.788,0,0,1-.08-.57v-.26l.62-.63a28.51,28.51,0,0,1,12.06-7,20.32,20.32,0,0,1,4.52-.87c-3.34-2.45-6.74-4.81-10.21-7l-.55-.35a15.52,15.52,0,0,0-4.65.34,14.65,14.65,0,0,0-2.09.7,2.645,2.645,0,0,1,0-.28,1.938,1.938,0,0,1,0-.24v-.35h0a14.434,14.434,0,0,1,1.69-.54,14.25,14.25,0,0,1,3.68-.43c-1.21-.77-2.43-1.53-3.65-2.27l-1.24-.73v-.05l.06-.35v-1.5h0l.08-.37.36.05.64.35c1.69.93,3.37,1.88,5,2.89,1.09.67,2.18,1.35,3.26,2.05a19.781,19.781,0,0,1-1.6-3.71c-.11-.34-.21-.68-.3-1h.79c.07.28.15.55.23.83a41.341,41.341,0,0,0,1.6,4.35c1.89,1.23,3.75,2.49,5.61,3.78,1.17.82,2.34,1.65,3.5,2.5a18.555,18.555,0,0,1-.55-2.07,27.351,27.351,0,0,1-.54-5.41,25.881,25.881,0,0,1,.47-4.81l1-.22a25.86,25.86,0,0,0-.57,5,25.09,25.09,0,0,0,.47,5.18c.16.85.35,1.7.58,2.54.05.17.1.34.16.51,2.7,2,5.36,4.06,8,6.15a33.26,33.26,0,0,1-.13-12.14,42.561,42.561,0,0,1,1.56-6.88c.24-.77.51-1.54.8-2.29a7.6,7.6,0,0,0,1.06-.05c-.33.85-.64,1.72-.92,2.6a42.119,42.119,0,0,0-1.57,6.75,69.142,69.142,0,0,0-.24,12.46L175,193l4,3.27a17.552,17.552,0,0,1-.11-2c0-1.16.05-2.32.16-3.48a38.734,38.734,0,0,1,1.24-6.68,37.92,37.92,0,0,1,5.9-12.11c.48-.66,1-1.31,1.51-2l.87.39c-.38.43-.76.87-1.11,1.33a35.86,35.86,0,0,0-3.61,5.7A37.45,37.45,0,0,0,180,190.13q-.21,1.88-.24,3.78c0,1,.06,2,0,3q3,2.49,6,5a9.369,9.369,0,0,1,.48-2.16,30,30,0,0,1,1.13-3.09,38.33,38.33,0,0,1,3.18-6,38.79,38.79,0,0,1,9-9.72c.8-.62,1.64-1.21,2.5-1.76l.79.73c-.63.41-1.26.82-1.87,1.25a37.5,37.5,0,0,0-5,4.34,38.31,38.31,0,0,0-7.26,10.64c-.52,1.15-1,2.32-1.42,3.51a13.27,13.27,0,0,1-1,2.71c2.08,1.76,4.17,3.53,6.24,5.31a10.253,10.253,0,0,1,.53-1,28.73,28.73,0,0,1,1.66-2.78,31.21,31.21,0,0,1,4.06-4.88,32.22,32.22,0,0,1,10.71-6.93c.45-.17.9-.34,1.36-.49.14.38.27.76.39,1.15a23.9,23.9,0,0,0-2.32.86,31.1,31.1,0,0,0-6.62,3.87,31.52,31.52,0,0,0-5.54,5.47,30.006,30.006,0,0,0-2.3,3.38c-.35.61-.66,1.43-1.08,2.11l2.23,1.92a9.9,9.9,0,0,1,1-.66,22.824,22.824,0,0,1,2.73-1.52,26.159,26.159,0,0,1,5.72-1.91,26.5,26.5,0,0,1,5.41-.57c-.18.36-.36.71-.56,1.06a25.236,25.236,0,0,0-10.68,2.71c-.89.45-1.75,1-2.6,1.49l-.17.11,1.45,1.26.42.36,13.88,12c3.65,3.15,7.33,6.25,10.93,9.46,1.79,1.6,3.6,3.19,5.38,4.81.84.76,1.5,1.73,2.28,2.56a29.593,29.593,0,0,1,2.37,2.75c.44.59-.31,1.17-.84.89a23.429,23.429,0,0,1-2.5-1.59l-1.22-.86c-.52-.34-1.08-.57-1.59-.95-1.67-1.25-3.24-2.71-4.85-4.06-3.24-2.73-6.43-5.54-9.63-8.33l-13.91-12.1-.61-.53-2.21-1.92v.3c-.1.85-.2,1.69-.24,2.54a23.121,23.121,0,0,0,.3,4.84,24.128,24.128,0,0,0,.92,3.63c-.26.42-.54.83-.85,1.24a23.2,23.2,0,0,1-1.25-4.69,22.942,22.942,0,0,1-.24-5,12.32,12.32,0,0,1,.55-3.58l-1.49-1.29-2.19-1.91c-.1.13-.2.27-.31.39-.44.53-.89,1.05-1.32,1.58a27.191,27.191,0,0,0-2.4,3.51,27.5,27.5,0,0,0-3,7.55,27.8,27.8,0,0,0-.65,8.14,27.1,27.1,0,0,0,.48,3.52,12.007,12.007,0,0,1-1.3.26,29.94,29.94,0,0,1-.29-8.49,27.88,27.88,0,0,1,4.55-12.57,30.239,30.239,0,0,1,2.18-2.85,15.872,15.872,0,0,1,1.36-1.36l.16-.13-6-5.28c-1.55,1.09-3.12,2.14-4.56,3.38a33.13,33.13,0,0,0-5.42,5.92A34.3,34.3,0,0,0,168.61,232v1.33l-.13-.07-.73-.37-.41-.23c.08-1.27.26-2.54.45-3.75a35.25,35.25,0,0,1,2-7.37,33.92,33.92,0,0,1,9.18-13.08,24.929,24.929,0,0,1,5.31-3.76l-6.17-5.39a21.309,21.309,0,0,1-2.36,1.37c-1,.57-2,1.16-3,1.81a39.62,39.62,0,0,0-13.69,15.74,43.13,43.13,0,0,0-2.28,6.07l-.39-.4-.59-.64a38.78,38.78,0,0,1,1.81-4.57,40.27,40.27,0,0,1,3.69-6.43Z"/><path class="d" d="M250.63,265.71c7.57-10.44,24.08-9.61,39.38,4.41,14.3,13.1,12.24,23.87,14,32.83a66.668,66.668,0,0,0,5.32,14.76s-23.23,14-46,6.94c-14.61-4.55-27.58-11.64-30.42-24.82-1.5-7,3.05-18,9.08-20,5.27-1.75,8.63-.7,8.63-.7S246.19,271.83,250.63,265.71Z"/><path class="e" d="M262.08,312.26a40.811,40.811,0,0,0,6.26-12.85,36.247,36.247,0,0,0,.86-3.88,12.838,12.838,0,0,0,.26-3l2.11,1.23q3.85,2.26,7.62,4.64c.21,1.7.48,3.4.55,5.12a33.661,33.661,0,0,1-.51,7.5,34.58,34.58,0,0,1-5.36,13.12c-.53.8-1.1,1.57-1.7,2.32h1.32c.23-.3.46-.61.68-.92a35.132,35.132,0,0,0,3.59-6.38,35.72,35.72,0,0,0,2.9-14.67,28.1,28.1,0,0,0-.55-5.62q5.13,3.26,10.12,6.7c.21,1.78.64,3.55.73,5.35a27.2,27.2,0,0,1-.52,6.74,26.679,26.679,0,0,1-2.16,6.4c-.25.52-.52,1-.8,1.52h.15l.36-.07.57-.12.25-.05c.14-.26.27-.53.4-.79a29,29,0,0,0,2.2-6.67,28.349,28.349,0,0,0,.51-7,20.539,20.539,0,0,0-.64-4.56q5.1,3.555,10,7.39l.52.41a15.7,15.7,0,0,1,1.17,4.51,13.59,13.59,0,0,1,0,2.21l.26-.11.23-.1.32-.14h0a15.112,15.112,0,0,0,0-1.78,14.107,14.107,0,0,0-.78-3.62c1.11.9,2.23,1.81,3.32,2.73.37.3.73.62,1.09.93h.05l.32-.17h.06l.23-.12.1-.05.16-.09.1-.06.14-.07.08-.05.12-.07h.09l.09-.06h.07l.33-.19-.16-.33-.54-.5c-1.43-1.3-2.87-2.58-4.36-3.82l-3-2.42a19.9,19.9,0,0,0,4,.32,6.343,6.343,0,0,0,1.07-.06l-.27-.73h-.85a42.511,42.511,0,0,1-4.65-.1c-1.76-1.39-3.56-2.76-5.38-4.09q-1.73-1.27-3.5-2.51a16.973,16.973,0,0,0,2.14-.15,26.59,26.59,0,0,0,5.29-1.24,25.329,25.329,0,0,0,4.41-2c-.05-.34-.09-.69-.13-1a25.585,25.585,0,0,1-4.58,2.17,25.079,25.079,0,0,1-5.06,1.23c-.86.12-1.72.22-2.59.27h-.53c-2.77-1.91-5.58-3.76-8.41-5.59a33.4,33.4,0,0,0,11.53-3.8,42.528,42.528,0,0,0,6-3.7c.65-.48,1.29-1,1.91-1.49-.09-.34-.19-.69-.29-1-.71.6-1.43,1.17-2.17,1.72a42.809,42.809,0,0,1-5.88,3.66,69.21,69.21,0,0,1-11.72,4.25l-5.82-3.71c-1.46-.93-2.93-1.84-4.4-2.76a16.051,16.051,0,0,0,2-.55c1.1-.37,2.18-.8,3.23-1.27a38.742,38.742,0,0,0,5.93-3.34,38.069,38.069,0,0,0,9.57-9.46c.46-.67.92-1.35,1.35-2.06l-.64-.7c-.29.5-.59,1-.91,1.48a35.569,35.569,0,0,1-4.23,5.26A37.561,37.561,0,0,1,277,287.39c-1.14.53-2.31,1-3.49,1.44-.93.34-1.92.6-2.82,1-2.22-1.38-4.46-2.74-6.7-4.09a9.7,9.7,0,0,0,1.89-1.15c.89-.64,1.74-1.34,2.56-2.06a39,39,0,0,0,10.95-16.62c.32-1,.62-1.94.85-2.93-.31-.18-.63-.35-.95-.52-.17.73-.36,1.45-.58,2.17a37,37,0,0,1-2.49,6.13,38.1,38.1,0,0,1-7.72,10.31c-.92.87-1.87,1.7-2.87,2.48a13.288,13.288,0,0,0-2.23,1.84q-3.51-2.11-7.05-4.2c.3-.27.56-.57.81-.83a28.992,28.992,0,0,0,2.1-2.48,31.231,31.231,0,0,0,3.31-5.41,32,32,0,0,0,3.09-12.37c0-.48,0-1,0-1.45h-1.21c0,.82,0,1.64-.07,2.47a30.651,30.651,0,0,1-1.53,7.51,31,31,0,0,1-3.38,7,30,30,0,0,1-2.46,3.27c-.46.53-1.14,1.09-1.64,1.7l-2.55-1.49a10.25,10.25,0,0,0,.31-1.14,21.39,21.39,0,0,0,.56-3.08,25.79,25.79,0,0,0,0-6,26.339,26.339,0,0,0-1.21-5.31c-.28.28-.55.57-.82.88a24.411,24.411,0,0,1,1,5,24.921,24.921,0,0,1-.12,6c-.14,1-.35,2-.58,2.95l-.05.2-1.66-1-.47-.28q-7.94-4.63-15.87-9.25c-4.16-2.43-8.28-4.93-12.48-7.29-2.1-1.18-4.18-2.38-6.29-3.54-1-.55-2.13-.86-3.17-1.33a30.646,30.646,0,0,0-3.36-1.36c-.7-.22-1,.68-.57,1.08a24.41,24.41,0,0,0,2.31,1.86c.4.29.81.57,1.21.88s.89.84,1.41,1.19c1.73,1.18,3.61,2.2,5.41,3.28,3.63,2.19,7.32,4.3,11,6.43l15.95,9.25.69.41,2.54,1.47-.28.13a17.45,17.45,0,0,1-2.32,1,23,23,0,0,1-4.68,1.28,24.481,24.481,0,0,1-3.73.31q-.47.57-.9,1.2a23.13,23.13,0,0,0,9.68-1.73,12.63,12.63,0,0,0,3.17-1.6l1.71,1,2.51,1.45a3.865,3.865,0,0,0-.27.43c-.36.58-.7,1.18-1.07,1.76a26.921,26.921,0,0,1-2.55,3.4,27.56,27.56,0,0,1-13.68,8.49,25.007,25.007,0,0,1-3.49.68q.06.68.18,1.32A29.84,29.84,0,0,0,241,297a27.94,27.94,0,0,0,10.43-8.36,29.181,29.181,0,0,0,2-3,12.6,12.6,0,0,0,.85-1.73.517.517,0,0,1,.08-.19l6.93,4a54.6,54.6,0,0,1-1.72,5.4,33.2,33.2,0,0,1-3.85,7,33.8,33.8,0,0,1-10.95,9.74,32.479,32.479,0,0,1-3.66,1.77c-.41.17-.82.32-1.24.47l.1.11.6.57.34.31c1.18-.49,2.32-1.06,3.4-1.63a35.579,35.579,0,0,0,6.33-4.29A33.91,33.91,0,0,0,260,294.32a25.078,25.078,0,0,0,1.84-6.23c2.37,1.36,4.73,2.72,7.09,4.1a24.243,24.243,0,0,0-.53,2.67c-.21,1.14-.45,2.28-.75,3.4a39.83,39.83,0,0,1-10.47,18,44.864,44.864,0,0,1-5,4.12l.51.23.79.36a39.774,39.774,0,0,0,3.74-3.19,40.838,40.838,0,0,0,4.86-5.52Z"/><path class="f" d="M192.65,310.72c-1.1-3.71-1.59-14.44-5.07-13-1.21.52,4.32,8.67,3.43,17-.94,8.83-13,15.45-13,15.45a44.671,44.671,0,0,1,.35-13.62c1.6-8.39,7.6-19.09,5.37-19.07-1.85,0-4.56,15.72-8.83,21.27-5.22,6.78-19.41,6.31-19.41,6.31s-.53-13,7.57-19.89c5.21-4.42,18.18-8,17.51-9.29-2.16-4.08-10.19,6.25-19.72,7.41s-21-7-21-7,11.41-9.57,19.69-9.9c3.38-.14,18.25,4.56,18.72,1.42s-10.94-.87-18-3.19S148,268.83,148,268.83s13.07-3.3,19-1,10.88,16.58,13.65,15.21c.61-.3-5.8-8.87-9-16.28A37.6,37.6,0,0,1,169,253.68s12.75,2.25,15.33,9.57c2.07,5.9-2.87,19.9.85,19.87,3.39,0,.25-11.51,1.73-19.44.84-4.54,5.3-10.16,5.3-10.16s7.47,10.11,5.76,21c-.9,5.78-7,10.72-8.05,13.88,4-.92,8-1.79,12-2.51,3.16-.56,6.34-1.05,9.53-1.42s6.55-.59,9.81-.72c3.61-.15,7.23-.19,10.78-.05,1.74.07,3.46.17,5.17.33.9.09,1.86.14,2.73.29s1.74.38,2.59.58c1.28.31.65,1.56-.75,1.58h-2.37a22.776,22.776,0,0,1-2.34-.08c-1.6-.07-3.2-.13-4.81-.18-3.18-.09-6.37-.11-9.59,0s-6.16.28-9.27.57-6.37.61-9.54,1.09c-4.6.68-9.13,1.59-13.65,2.57,1.8,2.58,8.83,4,12.35,11.7,3.29,7.25.58,22.32.58,22.32S195.67,320.88,192.65,310.72Z"/><path class="f" d="M247.45,205c3.55,1.57,12,8.14,13.16,4.53.39-1.26-9.41-2.33-15.17-8.39-6.12-6.44-3.38-19.88-3.38-19.88a44.53,44.53,0,0,1,10.16,9.09c5.35,6.65,9.62,18.15,11,16.44,1.18-1.42-9-13.66-10.49-20.5-1.79-8.38,7.76-18.88,7.76-18.88s10.26,8,10.25,18.65c0,6.83-5.67,19-4.26,19.35,4.51,1,1.84-11.8,7.12-19.82s19-11.43,19-11.43-.1,14.89-5.2,21.41c-2.09,2.66-15.3,11-13.22,13.34s7.76-7.76,14.1-11.65,20.05.82,20.05.82-5.95,12.09-11.58,15.1-19.68-2.45-20.44.55c-.16.66,10.52,1.33,18.26,3.65A37.52,37.52,0,0,1,306.24,224s-10,8.26-17.22,5.48c-5.83-2.24-13.3-15.08-15.69-12.23-2.17,2.61,8.61,7.65,13.7,13.91,2.9,3.59,4.31,10.63,4.31,10.63s-12.55-.86-19.78-9.25c-3.82-4.43-3.62-12.29-5.36-15.13-1.86,3.62-3.78,7.22-5.84,10.76-1.62,2.77-3.31,5.51-5.09,8.18s-3.8,5.38-5.81,7.94c-2.22,2.85-4.54,5.63-7,8.25-1.17,1.28-2.37,2.53-3.59,3.72-.65.64-1.31,1.33-2,1.89s-1.42,1.08-2.12,1.6c-1.07.78-1.61-.51-.72-1.59q.76-.9,1.5-1.83a19.736,19.736,0,0,1,1.58-1.73c1.09-1.17,2.18-2.35,3.25-3.55q3.2-3.54,6.22-7.3c1.94-2.41,3.78-4.88,5.57-7.43s3.66-5.25,5.35-8c2.46-3.95,4.7-8,6.88-12.06-3.13-.31-8.73,4.16-16.91,1.82-7.65-2.18-17.38-14-17.38-14S237.76,200.76,247.45,205Z"/><ellipse class="a" cx="148.23" cy="24.55" rx="148.23" ry="24.55" transform="translate(73.16 360.21)"/><path class="g" d="M248.75,203.9c0,11.31-9.92,29.56-25.8,29.56s-26.08-18.25-26.08-29.56c3.5-3.08,13.56-7.78,26.08-7.78S243.58,199.22,248.75,203.9Z"/><path class="h" d="M253.27,318.46c5.86,7.65,9,11.6,14.71,19.71-15.89,7.77-28.36,28.92-31.3,38.91l-28.86.11c-1.49-5.52-13.17-29.83-34-35.05,6.33-8.5,12.32-17.46,18.42-23.68Z"/><path class="g" d="M178.12,279.24c-7.37-5.74-36.82-31.75-36.82-31.75-5.65,1.14-8.81,7.14-8.81,7.14,5.12,8.38,29.92,37.7,38.39,40.77S188.16,287.08,178.12,279.24Z"/><path class="g" d="M128.84,241.74c-2.57-2.21-5-4.8-3.62-7.42,1-1.82,2.21-.2,3.93,1.4,2.52,2.34,7.68,2.06,9.31,6.64s2.94,5.2,5.76,7.86c3.19,3-4.6,10.21-8.86,7.45-5-3.26-9.75-1.66-14.25-2.76s-8.78-3-12-6.54-5.19-4.33-4.26-5.38,4.3,1.29,4.3,1.29-3.58-8-4.84-9.6.08-2.91,1.25-2.4a10.52,10.52,0,0,1,2.73,2.47,18.42,18.42,0,0,0-1.13-4.52c-.43-1.18,2.29-1.75,3.14-.45s2,7.55,4.55,11.26c1.81-4.21,3.06-7.24,6-8,1.36-.37,2.59-.73,4.14-1.13.83-.21.68,3.33-.93,4.4s-4.46,3.35-4.85,6.11.13,4.32,4.49,4.8S131.42,243.94,128.84,241.74Z"/><path class="g" d="M181.94,292c1.67-4.25,11-33.08,12-39.58.76-5.25-13.28-12.43-17.26-1-3.49,10-9.1,28-10.75,33.65C163,295,178.2,301.45,181.94,292Z"/><path class="i" d="M196.87,203.9C178.5,218.41,164.3,242,161,251.49c9.4,8.84,30.95,12.16,30.95,12.16s9.44-21.45,11.2-34.68S196.87,203.9,196.87,203.9Z"/><path class="g" d="M267,279.24c7.37-5.74,36.82-31.75,36.82-31.75,5.64,1.14,8.8,7.14,8.8,7.14-5.11,8.38-29.91,37.7-38.38,40.77S256.92,287.08,267,279.24Z"/><path class="g" d="M316.24,241.74c2.58-2.21,5-4.8,3.63-7.42-1-1.82-2.21-.2-3.94,1.4-2.51,2.34-7.68,2.06-9.3,6.64s-2.94,5.2-5.77,7.86c-3.18,3,4.61,10.21,8.86,7.45,5-3.26,9.76-1.66,14.25-2.76s8.79-3,12-6.54,5.2-4.33,4.27-5.38-4.3,1.29-4.3,1.29,3.58-8,4.84-9.6-.09-2.91-1.25-2.4a10.521,10.521,0,0,0-2.73,2.47,18.627,18.627,0,0,1,1.12-4.52c.44-1.18-2.29-1.75-3.14-.45s-2,7.55-4.54,11.26c-1.82-4.21-3.06-7.24-6-8-1.37-.37-2.6-.73-4.15-1.13-.82-.21-.67,3.33.94,4.4s4.46,3.35,4.84,6.11-.12,4.32-4.48,4.8S313.67,243.94,316.24,241.74Z"/><path class="g" d="M263.15,292c-1.68-4.25-11-33.08-12-39.58-.76-5.25,13.29-12.43,17.27-1,3.48,10,9.09,28,10.75,33.65C282.11,295,266.88,301.45,263.15,292Z"/><path class="i" d="M248.75,203.9c18.38,14.51,32.6,38.14,35.91,47.59-9.4,8.84-31,12.16-31,12.16S244.24,242.2,242.49,229,248.75,203.9,248.75,203.9Z"/><path class="h" d="M262.71,243.83c-1.55-11.78-7.88-18-14-40-.6-2.14-5.23-4.82-8.22-4.88-1,17.8-9.42,23.32-17.81,23.33-6.63,0-15.67-7.17-13.92-24.15a25.29,25.29,0,0,0-12.12,5.7c-5.77,20.88-12.44,28.25-14,40-1.4,10.66,5.67,21.53,5.67,21.53s3,38.2,4,53.1c7.91,4.64,14.27,7.34,30.08,7.34s24.3-2.89,30.91-7.34c.92-14.9,3.78-53.1,3.78-53.1S264.12,254.49,262.71,243.83Z"/><ellipse class="a" cx="28.63" cy="3.49" rx="28.63" ry="3.49" transform="translate(193.2 256.74)"/><path class="a" d="M236.57,250.58c0,1.19-6.6,2.16-14.74,2.16s-14.74-1-14.74-2.16,6.6-2.16,14.74-2.16S236.57,249.39,236.57,250.58Z"/><path class="i" d="M182.16,333.83c-15.34,6.78-43.62,28.75-56.75,42.7-10.59,11.24-3,23.7,28.15,17.35s58.78-12.07,65.45-21.6S199.63,332.56,182.16,333.83Z"/><path class="i" d="M264.12,333.83c15.57,8.26,44.79,31.81,55.65,42.79,11.23,11.35,4.08,23.61-27,17.26s-58.78-12.07-65.45-21.6S246.65,332.56,264.12,333.83Z"/><path class="g" d="M210,368.87c-7.51-3.25-12.91-7.05-14.85-12.36-2.8-7.68-5.76-8.82-11.47-6.85-13.77,4.73-24.57,1.58-37.74,3.68-2.57.41-5.5,1.87-5.33,6.25.07,1.73.76,1.89,1.49,1.69,5.67-1.56,8.56-1.7,15.23-.75C167.73,362,190.09,378,201,379.86c4.82-2.49,9.06-11,9.06-11"/><path class="h" d="M288.82,399.5c29.2,3,35.81-5.43,35.79-12.67,0-8-9.65-15.76-27.16-16.38-16.31-.57-68.9.58-95.84-6.26-6.57,1.87-9.83,8.11-11.37,12C203.71,386,263.48,396.88,288.82,399.5Z"/><path class="i" d="M201.61,364.19c-6.57,1.87-9.83,8.11-11.37,12,7,5.15,26.77,10.58,47.6,15,11.07-4.08,31-12.2,40.9-20.94C255.81,369.94,221.63,369.27,201.61,364.19Z"/><path class="g" d="M235.25,368.87c7.5-3.25,12.91-7.05,14.84-12.36,2.8-7.68,5.76-8.82,11.48-6.85,13.77,4.73,24.57,1.58,37.74,3.68,2.57.41,5.5,1.87,5.33,6.25-.07,1.73-.76,1.89-1.49,1.69-5.68-1.56-8.56-1.7-15.23-.75C277.54,362,255.17,378,244.3,379.86c-4.81-2.49-9.05-11-9.05-11"/><path class="h" d="M156.45,399.5c-29.21,3-35.82-5.43-35.79-12.67,0-8,9.64-15.76,27.16-16.38,16.3-.57,68.9.58,95.84-6.26,6.57,1.87,9.82,8.11,11.36,12C241.55,386,181.78,396.88,156.45,399.5Z"/><path class="g" d="M223.84,215.94c-8.25,0-12.2-8.78-12.2-15.52V182.13H236v18.29C236,207.16,232.08,215.94,223.84,215.94Z"/><path class="j" d="M211.64,194.91V183.22H236V196C225.79,197.78,218.1,197.54,211.64,194.91Z"/><path class="k" d="M199,154.58c2.81,6,3.11,10.68-.77,12.74s-12.68.35-15.48-5.6-1.95-12.46,1.92-14.53S196.17,148.62,199,154.58Z"/><path class="k" d="M189.62,162.57c4.73,20.75,20.71,33.75,41.68,30.37,19.08-3.09,30.42-30.88,29.19-55.4S244.74,94.6,221.58,96.63C186.12,99.75,179.66,118.84,189.62,162.57Z"/><path class="k" d="M249.93,148.94c-2,6.27-1.67,11,2.44,12.53s12.62-1.32,14.62-7.6.29-12.6-3.82-14.14S251.93,142.66,249.93,148.94Z"/><path class="l" d="M192.84,103.13s-4-1.69-7.57,2.63-9.85,35.58,5.39,53.26a.5.5,0,0,0,.89-.34c-.1-9.64,1.06-20,3.65-26.21,2.72-6.55,5.57-11.29,4.5-15.46S192.84,103.13,192.84,103.13Z"/><path class="l" d="M192.2,104.91s2.93,14.19,12.72,20.9,24.9,6.8,34,7.43,15.28,7.32,16.46,12.87c.55,2.55,1.09,6.23,1.36,8.14a.42.42,0,0,0,.79.15c2-3.85,13.78-14.18,10.47-34.2-4-24.4-14.05-33.15-31.57-36.39C221.76,81.1,207,84,201,89.27,193.49,95.85,191.38,98.94,192.2,104.91Z"/><path class="m" d="M223.58,159c2.64-.53,4.87-.09,5.37,1.87s-2.18,3.16-4.38,3.42S221.52,159.4,223.58,159Z"/><path class="n" d="M222.41,159.36a8.55,8.55,0,0,1,3.21-.64,4.15,4.15,0,0,1,3.15,1.2,1.81,1.81,0,0,1,.38,1.77,3,3,0,0,1-.41.8,7,7,0,0,1-.61.61,8.27,8.27,0,0,1-3,1.4,12.59,12.59,0,0,0,2.66-1.74c.77-.68,1.17-1.77.49-2.46a4.07,4.07,0,0,0-2.71-1.13,13.25,13.25,0,0,0-3.16.19Z"/><path class="n" d="M215.1,171.2a4,4,0,0,0,.21,2.42,7.26,7.26,0,0,0,1.21,2.07,7.88,7.88,0,0,0,4,2.53,16.651,16.651,0,0,0,4.85.55c.83,0,1.66-.13,2.5-.17s1.66-.26,2.51-.34c-.79.31-1.6.56-2.42.84a12.027,12.027,0,0,1-2.53.48,13.51,13.51,0,0,1-5.21-.36,7.85,7.85,0,0,1-4.32-3,6.83,6.83,0,0,1-1.05-2.43A3.77,3.77,0,0,1,215.1,171.2Z"/><path class="o" d="M230.23,141.39c-.42,3.17-2.2,12.48,6.73,13.22s6.8-10,6.8-10S234.31,141.81,230.23,141.39Z"/><path class="p" d="M236.65,152.49a1.893,1.893,0,0,1-2,1.66,1.86,1.86,0,0,1-2.12-1.46"/><path class="l" d="M231.54,141.41c8.36,1.31,16.13,3.42,10.75,3S226,140.55,231.54,141.41Z"/><path class="q" d="M216.54,141.39c.43,3.17,2.21,12.48-6.72,13.22s-6.8-10-6.8-10S212.47,141.81,216.54,141.39Z"/><path class="p" d="M213.91,152.49a1.9,1.9,0,0,1-2,1.66,1.85,1.85,0,0,1-2.11-1.46"/><path class="l" d="M215.24,141.41c-8.36,1.31-16.14,3.42-10.75,3S220.75,140.55,215.24,141.41Z"/><path class="r" d="M206.7,157c0,.68-1.78,1.24-4,1.24s-4-.56-4-1.24,1.78-1.25,4-1.25S206.7,156.3,206.7,157Z"/><path class="r" d="M248.66,157c0,.68-1.78,1.24-4,1.24s-4-.56-4-1.24,1.79-1.25,4-1.25S248.66,156.3,248.66,157Z"/><path class="l" d="M262.19,159.67a15,15,0,0,1-4.32,1.82c-4,14.84-12.35,27.39-23.82,30.8-1.59,9.91-.16,17.76,8.37,29.7-12.16,8.26-8.28,14.9-4.34,18.42,0-2.59,2.93-7.61,14.19-17.33C275.15,203.33,273.65,180.94,262.19,159.67Z"/><path class="s" d="M242.42,222c1.17-.67,6,.07,7.8,2.86"/><path class="c" d="M283.19,109.77a2.32,2.32,0,1,1-2.32-2.32A2.32,2.32,0,0,1,283.19,109.77Z"/><circle class="c" cx="1.9" cy="1.9" r="1.9" transform="translate(273.91 88.46)"/><circle class="c" cx="1.9" cy="1.9" r="1.9" transform="translate(302.61 82.13)"/><path class="c" d="M334.26,89.94a1.06,1.06,0,1,1-1.05-1.06,1,1,0,0,1,1.05,1.06Z"/><path class="c" d="M291.63,72.21a1.06,1.06,0,1,1-1.05-1.06,1.06,1.06,0,0,1,1.05,1.06Z"/><path class="c" d="M250.27,76a1.06,1.06,0,1,1-.5-1,1.06,1.06,0,0,1,.5,1Z"/><path class="c" d="M184,83a.85.85,0,1,1-.84-.84A.85.85,0,0,1,184,83Z"/><path class="c" d="M164.18,75.16a1.48,1.48,0,1,1-1.48-1.47,1.48,1.48,0,0,1,1.48,1.47Z"/><circle class="c" cx="0.84" cy="0.84" r="0.84" transform="translate(185.28 66.52)"/><circle class="c" cx="1.06" cy="1.06" r="1.06" transform="translate(121.12 164.42)"/><path class="c" d="M105.09,174.13a2.53,2.53,0,1,1-2.53-2.53,2.53,2.53,0,0,1,2.53,2.53Z"/><path class="c" d="M94.54,159.78a1.69,1.69,0,1,1-1.69-1.68,1.69,1.69,0,0,1,1.69,1.68Z"/><path class="c" d="M88.21,198.19a2.54,2.54,0,1,1-2.53-2.53A2.54,2.54,0,0,1,88.21,198.19Z"/><path class="c" d="M128.72,272.47a1.27,1.27,0,1,1-1.26-1.26A1.27,1.27,0,0,1,128.72,272.47Z"/><path class="c" d="M106.78,302.65a1.47,1.47,0,1,1-.431-1.049A1.48,1.48,0,0,1,106.78,302.65Z"/><path class="c" d="M72.59,295.47a2.32,2.32,0,1,1-2.32-2.32A2.32,2.32,0,0,1,72.59,295.47Z"/><circle class="c" cx="0.84" cy="0.84" r="0.84" transform="translate(96.23 285.14)"/><path class="c" d="M59.51,220.14a1.26,1.26,0,1,1-.369-.9A1.27,1.27,0,0,1,59.51,220.14Z"/><path class="c" d="M38,151.55a1.48,1.48,0,1,1-1.47-1.47A1.48,1.48,0,0,1,38,151.55Z"/><circle class="c" cx="1.06" cy="1.06" r="1.06" transform="translate(0 188.06)"/><circle class="c" cx="0.84" cy="0.84" r="0.84" transform="translate(60.36 108.3)"/><path class="c" d="M53.18,63.14a1.69,1.69,0,1,1-1.69-1.69,1.69,1.69,0,0,1,1.69,1.69Z"/><circle class="c" cx="0.63" cy="0.63" r="0.63" transform="translate(115.22 33.17)"/><path class="c" d="M367.18,128.13a1.27,1.27,0,1,1-1.27-1.26,1.27,1.27,0,0,1,1.27,1.26Z"/><circle class="c" cx="1.48" cy="1.48" r="1.48" transform="translate(381.95 109.98)"/><path class="c" d="M395,137.84a1.26,1.26,0,1,1-.369-.9A1.27,1.27,0,0,1,395,137.84Z"/><path class="c" d="M379.42,153.24a1.48,1.48,0,1,1-1.48-1.47,1.48,1.48,0,0,1,1.48,1.47Z"/><path class="c" d="M406.43,122.86a1.47,1.47,0,1,1-.431-1.049,1.48,1.48,0,0,1,.431,1.049Z"/><path class="c" d="M407.7,212.33a1.9,1.9,0,1,1-1.9-1.9,1.9,1.9,0,0,1,1.9,1.9Z"/><path class="c" d="M363,217.18a1.69,1.69,0,1,1-1.69-1.69,1.69,1.69,0,0,1,1.69,1.69Z"/><circle class="c" cx="1.06" cy="1.06" r="1.06" transform="translate(371.82 249.68)"/><circle class="c" cx="1.48" cy="1.48" r="1.48" transform="translate(385.75 217.6)"/><path class="c" d="M400.1,261.29a2.32,2.32,0,1,1-2.32-2.32,2.32,2.32,0,0,1,2.32,2.32Z"/><circle class="c" cx="1.48" cy="1.48" r="1.48" transform="translate(373.09 299.9)"/><path class="c" d="M329.62,339.58a1.26,1.26,0,1,1-.369-.9A1.27,1.27,0,0,1,329.62,339.58Z"/><path class="c" d="M297.12,338.31a1.27,1.27,0,1,1-1.27-1.27A1.27,1.27,0,0,1,297.12,338.31Z"/><path class="c" d="M323.29,321.85a1.69,1.69,0,1,1-1.69-1.69,1.69,1.69,0,0,1,1.69,1.69Z"/><circle class="c" cx="1.69" cy="1.69" r="1.69" transform="translate(360 345.91)"/><circle class="c" cx="1.9" cy="1.9" r="1.9" transform="translate(402.63 310.03)"/><circle class="c" cx="2.53" cy="2.53" r="2.53" transform="translate(341.86 215.92)"/><circle class="c" cx="0.84" cy="0.84" r="0.84" transform="translate(278.55 138.69)"/><circle class="c" cx="1.9" cy="1.9" r="1.9" transform="translate(112.26 329.45)"/></g></svg>