<svg xmlns="http://www.w3.org/2000/svg" width="330.064" height="308.156" viewBox="0 0 330.064 308.156"><defs><style>.a{fill:#fff;}.b{fill:#e0e0e0;}.c{fill:#22ab4b;}.d{fill:#455a64;}.e{fill:#263238;}.f{fill:#37474f;}.g{fill:#fafafa;}.h{fill:#27debf;}.i{opacity:0.2;}.j{opacity:0.6;}.k{fill:#ffa8a7;}.l{fill:#fe6d73;}.m{opacity:0.1;}.n{fill:#b16668;}.o{fill:#f28f8f;}</style></defs><g transform="translate(0 -0.005)"><g transform="translate(0 117.595)"><ellipse class="a" cx="165.032" cy="95.283" rx="165.032" ry="95.283"/></g><g transform="translate(73.973 219.372)"><ellipse class="b" cx="56.909" cy="32.854" rx="56.909" ry="32.854"/></g><g transform="translate(15.549 143.179)"><g transform="translate(269.576 8.208)"><path class="c" d="M437.538,275.842l6.669-3.853s1.639-14.29.546-25.358c-1.527-15.551-11.572-34.269-23.551-29.87s5.492,20.231,9.38,33.428S437.538,275.842,437.538,275.842Z" transform="translate(-410.034 -216.108)"/><path class="a" d="M444.139,276.3h0a.406.406,0,0,1-.392-.42c1.17-34.556-16.028-51.943-16.2-52.111a.406.406,0,1,1,.567-.574c.175.175,17.625,17.807,16.441,52.713a.4.4,0,0,1-.413.392Z" transform="translate(-413.125 -218.186)"/><path class="c" d="M430.335,286.911l4.749-2.739a52.353,52.353,0,0,0-4.007-21.716c-4.2-10.367-14.571-18.977-19.789-17.169s-5.1,5.513-2.55,9.4S426.776,267.829,430.335,286.911Z" transform="translate(-407.027 -224.775)"/><path class="a" d="M434.806,287.124h0a.4.4,0,0,1-.4-.406c.091-21.856-20.427-36.622-20.63-36.77a.4.4,0,0,1-.1-.56.406.406,0,0,1,.56-.1c.21.154,21.071,15.166,20.973,37.428A.406.406,0,0,1,434.806,287.124Z" transform="translate(-408.997 -226.024)"/></g><path class="c" d="M29.61,263.751l-6.15-4.161s-2.711-16.147-.189-30.325c3.545-19.936,17.288-26.57,22.2-24.518s5.954,8.035-3.2,19.418C36.854,230.9,29.8,245.188,29.61,263.751Z" transform="translate(-22.197 -204.391)"/><path class="a" d="M29.41,256.995h.063a.441.441,0,0,0,.385-.5c-2.221-18.767,5.7-39.137,14.318-47.242a.441.441,0,0,0,0-.63.448.448,0,0,0-.63,0C34.79,216.856,26.713,237.57,28.975,256.6A.455.455,0,0,0,29.41,256.995Z" transform="translate(-24.112 -205.62)"/><path class="c" d="M46.915,281.906c.974.588,3.839-1.534,4.623-2.046a9.373,9.373,0,0,0,3.208-3.545,8.805,8.805,0,0,0,.883-5.3,19.9,19.9,0,0,0-.616-2.837l-.7-2.76a6.942,6.942,0,0,1-.343-2.8c.273-1.87,1.961-3.152,3.5-4.252,1.7-1.219,3.5-2.844,3.5-5.1a7.972,7.972,0,0,0-1.926-4.756c-1.051-1.4-2.312-2.62-3.257-4.077a5.562,5.562,0,0,1-1.072-3.5,5.982,5.982,0,0,1,.806-2.179,32.48,32.48,0,0,0,2.487-4.35c.581-1.548.539-3.538-.7-4.686a5.155,5.155,0,0,0-3.867-1.044,8.855,8.855,0,0,0-3.6,1.184c-3.622,1.926-5.751,6.129-9.583,7.593a39.222,39.222,0,0,1-4.63,1.037,5.686,5.686,0,0,0-3.846,2.529c-1.45,2.76,1.079,6.249,0,9.191-.918,2.6-3.5,3.552-4.96,5.884a5.6,5.6,0,0,0-.7,3.418,16.357,16.357,0,0,0,1.3,5.814,51.139,51.139,0,0,0,3.061,5.513S46.761,281.815,46.915,281.906Z" transform="translate(-23.362 -211.66)"/><path class="a" d="M42.085,277.587h0a.448.448,0,0,0,.441-.455C42.134,259.395,50.855,240,57.041,234.4a.462.462,0,0,0,0-.637.441.441,0,0,0-.63,0c-6.3,5.674-15.215,25.4-14.816,43.382a.455.455,0,0,0,.49.441Z" transform="translate(-28.003 -213.148)"/><path class="a" d="M46.814,264.378a.405.405,0,0,0,.133,0,59.569,59.569,0,0,1,12.9-1.821.448.448,0,0,0,.434-.462.434.434,0,0,0-.455-.434A60.6,60.6,0,0,0,46.7,263.523a.448.448,0,0,0-.308.546A.455.455,0,0,0,46.814,264.378Z" transform="translate(-29.439 -221.543)"/></g><g transform="translate(178.867 30.244)"><path class="d" d="M333.685,203.278l2.662-1.541a3.362,3.362,0,0,0,1.513-2.627V88.774a3.348,3.348,0,0,0-1.513-2.627l-73.8-42.612a3.355,3.355,0,0,0-3.033,0l-2.655,1.534a3.349,3.349,0,0,0-1.52,2.627V158.04a3.348,3.348,0,0,0,1.52,2.627l73.8,42.612a3.341,3.341,0,0,0,3.026,0Z" transform="translate(-255.34 -43.173)"/><path class="d" d="M255.36,47.451c.105-.785.743-1.072,1.506-.63l73.791,42.612a3.138,3.138,0,0,1,1.072,1.128l5.7-3.285a3.1,3.1,0,0,0-1.072-1.135l-73.8-42.6a3.355,3.355,0,0,0-3.033,0l-2.655,1.534a3.383,3.383,0,0,0-1.506,2.382Z" transform="translate(-255.346 -43.173)"/><path class="e" d="M363.22,222.253a3.383,3.383,0,0,0,2.8-.119l2.662-1.541a3.362,3.362,0,0,0,1.513-2.627V107.622a3.1,3.1,0,0,0-.441-1.492l-5.7,3.285a3.061,3.061,0,0,1,.406,1.527V221.258C364.467,222.127,363.935,222.526,363.22,222.253Z" transform="translate(-287.649 -62.028)"/><path class="f" d="M332.157,93.558V203.874c0,.967-.7,1.359-1.513.876L256.86,162.138a3.348,3.348,0,0,1-1.52-2.627V49.167c0-.967.7-1.359,1.52-.876l73.8,42.612A3.362,3.362,0,0,1,332.157,93.558Z" transform="translate(-255.34 -44.644)"/><path class="d" d="M382.246,162.7c.953-.567,5.373-3.082,5.6-3.215a1.4,1.4,0,0,0,.3-2.165L370.7,138.6l-5.7,3.264L382.457,160.6a1.4,1.4,0,0,1-.21,2.1Z" transform="translate(-288.183 -71.753)"/><path class="f" d="M365,143.27l17.457,18.725a1.4,1.4,0,0,1-1.135,2.354L365,163Z" transform="translate(-288.183 -73.151)"/><path class="c" d="M303.537,94.27c-8.6-4.967-15.537-.939-15.537,8.98s6.97,22,15.572,26.969,15.572.939,15.572-8.987S312.139,99.237,303.537,94.27Z" transform="translate(-265.121 -57.839)"/><path class="a" d="M308.181,106.045c-2.8-1.611-5.051-.308-5.051,2.914a11.208,11.208,0,0,0,5.051,8.756c2.8,1.6,5.051.3,5.051-2.921A11.166,11.166,0,0,0,308.181,106.045Z" transform="translate(-269.653 -61.796)"/><path class="a" d="M296.12,128.328c0-5.289,3.72-7.432,8.3-4.791l2.865,1.66c4.588,2.641,8.3,9.107,8.3,14.374v1.464a8.5,8.5,0,0,1-2.676.413,14.108,14.108,0,0,1-6.942-2.1,30.823,30.823,0,0,1-9.849-9.737Z" transform="translate(-267.553 -66.903)"/><path class="c" d="M315.176,211.752l-19.726-11.39c-.841-.483-1.52-.091-1.52.876v6.354a3.349,3.349,0,0,0,1.52,2.627l19.726,11.39c.841.483,1.52.091,1.52-.876v-6.354A3.348,3.348,0,0,0,315.176,211.752Z" transform="translate(-266.897 -90.188)"/><path class="g" d="M320.581,186.706l-39.046-22.542c-1-.581-1.814-.112-1.814,1.051v2.361a4.014,4.014,0,0,0,1.814,3.152l39.046,22.542c1,.581,1.821.112,1.821-1.051v-2.326A4.035,4.035,0,0,0,320.581,186.706Z" transform="translate(-262.642 -79.334)"/><path class="g" d="M290.278,150.824a.336.336,0,0,0-.2,0,.56.56,0,0,0-.217.063l-5.674,3.278a.189.189,0,0,0-.112.126.091.091,0,0,0,.056.112l.532.308a.322.322,0,0,0,.2,0,.56.56,0,0,0,.217-.063l1.961-1.128,1.051.609a3.264,3.264,0,0,0,1.751.42,4.2,4.2,0,0,0,1.912-.6c.644-.371.988-.7,1.03-1.1s-.21-.7-.743-1Zm-.385,1.044,1.023.588c.252.147.385.3.406.455s-.126.336-.455.525a1.681,1.681,0,0,1-.911.266,1.646,1.646,0,0,1-.8-.231l-1.023-.588Z" transform="translate(-263.946 -75.409)"/><path class="g" d="M297.627,155.477a.336.336,0,0,0-.231-.049,1.443,1.443,0,0,0-.315.077l-7.159,2.27-.07.035a.189.189,0,0,0-.112.126.1.1,0,0,0,.056.112l.469.273a.455.455,0,0,0,.259.063.855.855,0,0,0,.217-.042l1.282-.413,2.1,1.2-.7.7a.364.364,0,0,0-.07.126c0,.049,0,.1.112.154l.469.273a.343.343,0,0,0,.2,0,.6.6,0,0,0,.224-.063l.056-.042,3.937-4.133a.54.54,0,0,0,.126-.189.123.123,0,0,0-.077-.133Zm-4.2,2.01,3.229-1.023-1.779,1.863Z" transform="translate(-265.642 -76.792)"/><path class="g" d="M304.453,159.085a4.069,4.069,0,0,0-.925-.105,4.244,4.244,0,0,0-.932.119,3.321,3.321,0,0,0-.862.35,2.619,2.619,0,0,0-.6.434.9.9,0,0,0-.259.427.7.7,0,0,0,.049.441,2.171,2.171,0,0,0,.329.476c.161.189.308.35.434.483a2.8,2.8,0,0,1,.3.364.4.4,0,0,1,.07.287.413.413,0,0,1-.224.231.974.974,0,0,1-.427.147,1.912,1.912,0,0,1-.448,0,2.06,2.06,0,0,1-.455-.112,2.327,2.327,0,0,1-.42-.2,1.569,1.569,0,0,1-.364-.273.63.63,0,0,1-.133-.252.336.336,0,0,1,0-.217,1.129,1.129,0,0,1,.119-.2.2.2,0,0,0,.056-.147c0-.042-.042-.084-.119-.126l-.462-.273a.455.455,0,0,0-.189-.035.5.5,0,0,0-.224.07,1.6,1.6,0,0,0-.525.511.876.876,0,0,0-.119.553,1,1,0,0,0,.252.539,2.158,2.158,0,0,0,.588.476,3.5,3.5,0,0,0,.939.378,3.965,3.965,0,0,0,.981.126,3.621,3.621,0,0,0,.953-.119,3.257,3.257,0,0,0,.869-.343,2.521,2.521,0,0,0,.553-.42.875.875,0,0,0,.224-.448.813.813,0,0,0-.1-.476,2.626,2.626,0,0,0-.413-.553c-.175-.175-.315-.329-.42-.455a1.17,1.17,0,0,1-.224-.322.287.287,0,0,1,0-.252.75.75,0,0,1,.266-.224,1.142,1.142,0,0,1,.364-.133,1.568,1.568,0,0,1,.406,0,1.717,1.717,0,0,1,.413.077,1.611,1.611,0,0,1,.371.161c.266.147.406.294.434.434a.49.49,0,0,1-.084.392.357.357,0,0,0-.049.154c0,.042.035.084.112.126l.462.266a.315.315,0,0,0,.189.035.406.406,0,0,0,.224-.07,1.443,1.443,0,0,0,.413-.385.9.9,0,0,0,.182-.5.988.988,0,0,0-.168-.553,1.716,1.716,0,0,0-.616-.539A2.984,2.984,0,0,0,304.453,159.085Z" transform="translate(-268.153 -77.856)"/><path class="g" d="M311.018,162.875a4.161,4.161,0,0,0-.925-.105,3.818,3.818,0,0,0-.932.119,3.132,3.132,0,0,0-.862.35,2.529,2.529,0,0,0-.6.434.9.9,0,0,0-.259.427.7.7,0,0,0,.056.441,2.1,2.1,0,0,0,.322.476,6,6,0,0,0,.441.483,2.225,2.225,0,0,1,.294.364.364.364,0,0,1,.07.287.392.392,0,0,1-.224.231.946.946,0,0,1-.42.147,1.983,1.983,0,0,1-.455,0,2.061,2.061,0,0,1-.455-.112,2.883,2.883,0,0,1-.42-.2,1.569,1.569,0,0,1-.364-.273.659.659,0,0,1-.133-.245.35.35,0,0,1,0-.224,1.091,1.091,0,0,1,.112-.2.259.259,0,0,0,.063-.147c0-.042-.049-.084-.119-.126l-.462-.273a.392.392,0,0,0-.2-.035.469.469,0,0,0-.217.07,1.6,1.6,0,0,0-.525.511.883.883,0,0,0-.126.553,1.072,1.072,0,0,0,.259.539,2.017,2.017,0,0,0,.581.476,3.769,3.769,0,0,0,.939.378,3.964,3.964,0,0,0,.981.126,3.713,3.713,0,0,0,.96-.119,3.459,3.459,0,0,0,.862-.343,2.367,2.367,0,0,0,.553-.42.875.875,0,0,0,.224-.448.7.7,0,0,0-.1-.476,2.4,2.4,0,0,0-.413-.553c-.168-.175-.308-.329-.42-.455a1.352,1.352,0,0,1-.224-.322.266.266,0,0,1,0-.252.7.7,0,0,1,.266-.224,1.085,1.085,0,0,1,.364-.133,1.57,1.57,0,0,1,.406,0,1.919,1.919,0,0,1,.785.238c.259.147.406.294.434.434a.553.553,0,0,1-.084.392.379.379,0,0,0-.056.154c0,.042.042.084.112.126l.462.266a.329.329,0,0,0,.2,0,.4.4,0,0,0,.217-.07,1.443,1.443,0,0,0,.413-.385.887.887,0,0,0,.021-1.051,1.814,1.814,0,0,0-.623-.539,3.019,3.019,0,0,0-.778-.3Z" transform="translate(-270.115 -78.991)"/><path class="g" d="M313.565,170.813a.7.7,0,0,0-.133.175.126.126,0,0,0,.07.133l.532.308a.427.427,0,0,0,.238.042,1.2,1.2,0,0,0,.287-.084l6.389-2.711h.077c.063-.042.105-.084.112-.133a.1.1,0,0,0-.049-.112l-.49-.28a.533.533,0,0,0-.175-.042.7.7,0,0,0-.266.063L315.876,170l1.856-1.632a.378.378,0,0,0,.1-.126c.035-.056,0-.112-.07-.154l-.539-.315a.434.434,0,0,0-.266-.042l-.224.056-2.8,1.072,3.173-2.466c.07-.063.105-.112.105-.154a.14.14,0,0,0-.077-.105l-.483-.28a.336.336,0,0,0-.2,0,.525.525,0,0,0-.217.063l-.07.042-4.693,3.692a.329.329,0,0,0-.14.168.122.122,0,0,0,.07.133l.532.308a.329.329,0,0,0,.231.042,2.1,2.1,0,0,0,.3-.077l3.187-1.191Z" transform="translate(-272.109 -79.911)"/><path class="g" d="M321.913,172.154l-.42.238-.413.245-.364.217a4.371,4.371,0,0,0-.785.616,1.5,1.5,0,0,0-.392.644.855.855,0,0,0,.084.637,1.723,1.723,0,0,0,.658.588,3.047,3.047,0,0,0,1.03.378,4.119,4.119,0,0,0,1.1.056,5.253,5.253,0,0,0,1.114-.231,6.83,6.83,0,0,0,1.065-.448l.378-.21.42-.238.42-.245.357-.217a3.936,3.936,0,0,0,.785-.623,1.485,1.485,0,0,0,.392-.644.82.82,0,0,0-.084-.637,1.646,1.646,0,0,0-.651-.588,3.047,3.047,0,0,0-1.03-.378,4.5,4.5,0,0,0-1.107-.049,5.253,5.253,0,0,0-1.114.231,6.241,6.241,0,0,0-1.065.455Zm2.592,1.982-.757.42a3.23,3.23,0,0,1-1.282.385,1.961,1.961,0,0,1-1.086-.231c-.308-.182-.441-.385-.4-.623s.266-.49.7-.743c.21-.133.455-.28.7-.434s.525-.3.757-.42a3.076,3.076,0,0,1,1.282-.392,1.835,1.835,0,0,1,1.086.231c.308.175.441.385.4.623s-.273.49-.7.743Z" transform="translate(-274.559 -81.531)"/><path class="g" d="M331.595,174.674a.343.343,0,0,0-.2,0,.6.6,0,0,0-.224.063l-5.674,3.278a.21.21,0,0,0-.112.126.091.091,0,0,0,.056.112l.532.308a.329.329,0,0,0,.2.035.441.441,0,0,0,.217-.07l2.045-1.177.883.5-1.191,1.681a.371.371,0,0,0-.063.14c0,.056,0,.105.112.154l.56.329a.28.28,0,0,0,.161,0,.365.365,0,0,0,.175-.049.252.252,0,0,0,.077-.07l1.261-1.779a3.37,3.37,0,0,0,1.324,0,4.021,4.021,0,0,0,1.31-.5c.6-.343.932-.7.988-1.058s-.189-.7-.743-1.016Zm-.392,1.051.96.546a.854.854,0,0,1,.434.441c.035.154-.112.322-.441.511a1.618,1.618,0,0,1-.89.259,1.8,1.8,0,0,1-.778-.245l-.953-.553Z" transform="translate(-276.318 -82.552)"/><path class="g" d="M338.345,178.584a.336.336,0,0,0-.2,0,.6.6,0,0,0-.224.063l-5.674,3.278a.21.21,0,0,0-.112.126.091.091,0,0,0,.056.112l1.66.96a3.314,3.314,0,0,0,.995.378,3.7,3.7,0,0,0,1.079.056,5.165,5.165,0,0,0,1.135-.224,8.033,8.033,0,0,0,1.156-.49c.448-.238.883-.49,1.3-.75a4.47,4.47,0,0,0,.848-.7,1.4,1.4,0,0,0,.392-.651.791.791,0,0,0-.112-.63,1.842,1.842,0,0,0-.7-.588Zm-1.016,3.713a3.881,3.881,0,0,1-.609.259,2.528,2.528,0,0,1-.623.126,2.213,2.213,0,0,1-.609,0,1.744,1.744,0,0,1-.567-.21l-.918-.532,3.958-2.277.883.5a1.051,1.051,0,0,1,.385.343.47.47,0,0,1,.056.357.883.883,0,0,1-.217.364,2.144,2.144,0,0,1-.441.343c-.4.231-.834.483-1.282.721Z" transform="translate(-278.339 -83.723)"/></g><g transform="translate(151.326 0.005)"><g transform="translate(0 0)"><path class="h" d="M269.34.268a12.89,12.89,0,0,1,3.461,1.3,10.038,10.038,0,0,1,2.753,2.186,8.1,8.1,0,0,1,1.625,2.942,7.005,7.005,0,0,1,.07,3.566,7.138,7.138,0,0,1-1.093,2.606,8.5,8.5,0,0,1-1.709,1.793,13.212,13.212,0,0,1-2.031,1.31L270.4,17.038a11.039,11.039,0,0,0-1.7,1.114,3.306,3.306,0,0,0-1.107,1.464,1.5,1.5,0,0,1-.511.658.9.9,0,0,1-.778.161l-2.97-.658a1.107,1.107,0,0,1-.7-.483.9.9,0,0,1-.133-.806,7.089,7.089,0,0,1,1.24-2.536,9.891,9.891,0,0,1,1.828-1.765,13.926,13.926,0,0,1,2.1-1.275q1.086-.546,2.017-1.051a8.744,8.744,0,0,0,1.59-1.086,2.48,2.48,0,0,0,.841-1.4,3.005,3.005,0,0,0-.7-2.718,5.45,5.45,0,0,0-3.11-1.688,5.228,5.228,0,0,0-5.6,2.242,2.284,2.284,0,0,1-.553.553,1.016,1.016,0,0,1-.771.049l-3.159-.7a.869.869,0,0,1-.553-.364.827.827,0,0,1-.119-.7,6.262,6.262,0,0,1,1.457-2.606,9.661,9.661,0,0,1,2.725-2.1,11.775,11.775,0,0,1,3.58-1.191,10.311,10.311,0,0,1,4.028.119ZM265.984,22.8a1.016,1.016,0,0,1,.7.476,1.044,1.044,0,0,1,.147.813l-.757,3.432a1.037,1.037,0,0,1-.476.7,1.023,1.023,0,0,1-.813.154l-3.362-.75a1.016,1.016,0,0,1-.7-.476,1.03,1.03,0,0,1-.147-.806l.764-3.439a1.093,1.093,0,0,1,1.289-.82Z" transform="translate(-257.519 -0.005)"/><path class="h" d="M258.847,47.238a8.945,8.945,0,0,1,2.557-.056,7.005,7.005,0,0,1,2.326.7,5.6,5.6,0,0,1,1.793,1.471,4.9,4.9,0,0,1,.96,2.27,5,5,0,0,1,0,1.947,5.773,5.773,0,0,1-.637,1.59,8.846,8.846,0,0,1-.967,1.359l-1.023,1.2a8.072,8.072,0,0,0-.813,1.156,2.164,2.164,0,0,0-.322,1.2,1.184,1.184,0,0,1-.161.56.658.658,0,0,1-.455.294l-2.1.343a.785.785,0,0,1-.567-.133.6.6,0,0,1-.287-.483,4.735,4.735,0,0,1,.14-1.94,6.8,6.8,0,0,1,.7-1.6A9.3,9.3,0,0,1,261,55.763c.371-.413.7-.813,1.023-1.191a5.962,5.962,0,0,0,.743-1.1,1.709,1.709,0,0,0,.182-1.107A2.1,2.1,0,0,0,261.8,50.8a3.776,3.776,0,0,0-2.417-.266,3.643,3.643,0,0,0-3.033,2.879,1.583,1.583,0,0,1-.21.5.75.75,0,0,1-.483.231l-2.207.357a.6.6,0,0,1-.448-.091.574.574,0,0,1-.245-.406,4.2,4.2,0,0,1,.266-2.045,6.584,6.584,0,0,1,1.2-2.045,8.238,8.238,0,0,1,1.989-1.681,7.173,7.173,0,0,1,2.634-.995Zm3.622,15.3a.743.743,0,0,1,.553.133.757.757,0,0,1,.308.483l.385,2.4a.753.753,0,0,1-.609.855l-2.347.385a.742.742,0,0,1-.553-.133.7.7,0,0,1-.3-.483l-.392-2.4a.751.751,0,0,1,.616-.855Z" transform="translate(-243.293 -14.114)"/><g class="i" transform="translate(9.431 33.001)"><path d="M258.847,47.238a8.945,8.945,0,0,1,2.557-.056,7.005,7.005,0,0,1,2.326.7,5.6,5.6,0,0,1,1.793,1.471,4.9,4.9,0,0,1,.96,2.27,5,5,0,0,1,0,1.947,5.773,5.773,0,0,1-.637,1.59,8.846,8.846,0,0,1-.967,1.359l-1.023,1.2a8.072,8.072,0,0,0-.813,1.156,2.164,2.164,0,0,0-.322,1.2,1.184,1.184,0,0,1-.161.56.658.658,0,0,1-.455.294l-2.1.343a.785.785,0,0,1-.567-.133.6.6,0,0,1-.287-.483,4.735,4.735,0,0,1,.14-1.94,6.8,6.8,0,0,1,.7-1.6A9.3,9.3,0,0,1,261,55.763c.371-.413.7-.813,1.023-1.191a5.962,5.962,0,0,0,.743-1.1,1.709,1.709,0,0,0,.182-1.107A2.1,2.1,0,0,0,261.8,50.8a3.776,3.776,0,0,0-2.417-.266,3.643,3.643,0,0,0-3.033,2.879,1.583,1.583,0,0,1-.21.5.75.75,0,0,1-.483.231l-2.207.357a.6.6,0,0,1-.448-.091.574.574,0,0,1-.245-.406,4.2,4.2,0,0,1,.266-2.045,6.584,6.584,0,0,1,1.2-2.045,8.238,8.238,0,0,1,1.989-1.681,7.173,7.173,0,0,1,2.634-.995Zm3.622,15.3a.743.743,0,0,1,.553.133.757.757,0,0,1,.308.483l.385,2.4a.753.753,0,0,1-.609.855l-2.347.385a.742.742,0,0,1-.553-.133.7.7,0,0,1-.3-.483l-.392-2.4a.751.751,0,0,1,.616-.855Z" transform="translate(-252.723 -47.116)"/></g><path class="h" d="M221.381,45.166a.855.855,0,0,1,.357.574.841.841,0,0,1-.147.658l-1.667,2.347a.869.869,0,0,1-.574.357.841.841,0,0,1-.658-.147l-2.3-1.632a.855.855,0,0,1-.357-.574.9.9,0,0,1,.147-.658l1.674-2.347a.893.893,0,0,1,1.233-.21Zm9.7-15.88a10.508,10.508,0,0,1,2.2,2.1,8.091,8.091,0,0,1,1.4,2.522,6.451,6.451,0,0,1,.287,2.732,5.71,5.71,0,0,1-1.079,2.711,5.905,5.905,0,0,1-1.667,1.569,7.111,7.111,0,0,1-1.856.806,12.47,12.47,0,0,1-1.947.343c-.658.049-1.282.105-1.863.161a9.107,9.107,0,0,0-1.653.287,2.7,2.7,0,0,0-1.289.778,1.191,1.191,0,0,1-.6.336.743.743,0,0,1-.637-.126l-2.024-1.443a.9.9,0,0,1-.371-.581.75.75,0,0,1,.161-.651,5.737,5.737,0,0,1,1.744-1.513,8,8,0,0,1,1.926-.785,11.509,11.509,0,0,1,1.982-.3q.988-.063,1.849-.147a7.292,7.292,0,0,0,1.548-.308,2.053,2.053,0,0,0,1.079-.785,2.473,2.473,0,0,0,.336-2.277,4.448,4.448,0,0,0-1.8-2.263,4.3,4.3,0,0,0-4.953-.105,1.814,1.814,0,0,1-.588.238.827.827,0,0,1-.6-.2l-2.158-1.534a.692.692,0,0,1-.168-1,4.967,4.967,0,0,1,1.926-1.5,7.986,7.986,0,0,1,2.718-.7,9.737,9.737,0,0,1,3.082.245,8.406,8.406,0,0,1,3.012,1.394Z" transform="translate(-186.016 -8.274)"/><g class="j" transform="translate(30.008 19.341)"><path class="a" d="M221.381,45.166a.855.855,0,0,1,.357.574.841.841,0,0,1-.147.658l-1.667,2.347a.869.869,0,0,1-.574.357.841.841,0,0,1-.658-.147l-2.3-1.632a.855.855,0,0,1-.357-.574.9.9,0,0,1,.147-.658l1.674-2.347a.893.893,0,0,1,1.233-.21Zm9.7-15.88a10.508,10.508,0,0,1,2.2,2.1,8.091,8.091,0,0,1,1.4,2.522,6.451,6.451,0,0,1,.287,2.732,5.71,5.71,0,0,1-1.079,2.711,5.905,5.905,0,0,1-1.667,1.569,7.111,7.111,0,0,1-1.856.806,12.47,12.47,0,0,1-1.947.343c-.658.049-1.282.105-1.863.161a9.107,9.107,0,0,0-1.653.287,2.7,2.7,0,0,0-1.289.778,1.191,1.191,0,0,1-.6.336.743.743,0,0,1-.637-.126l-2.024-1.443a.9.9,0,0,1-.371-.581.75.75,0,0,1,.161-.651,5.737,5.737,0,0,1,1.744-1.513,8,8,0,0,1,1.926-.785,11.509,11.509,0,0,1,1.982-.3q.988-.063,1.849-.147a7.292,7.292,0,0,0,1.548-.308,2.053,2.053,0,0,0,1.079-.785,2.473,2.473,0,0,0,.336-2.277,4.448,4.448,0,0,0-1.8-2.263,4.3,4.3,0,0,0-4.953-.105,1.814,1.814,0,0,1-.588.238.827.827,0,0,1-.6-.2l-2.158-1.534a.692.692,0,0,1-.168-1,4.967,4.967,0,0,1,1.926-1.5,7.986,7.986,0,0,1,2.718-.7,9.737,9.737,0,0,1,3.082.245,8.406,8.406,0,0,1,3.012,1.394Z" transform="translate(-216.025 -27.615)"/></g></g></g><g transform="translate(79.415 17.164)"><path class="e" d="M157.271,106.967h24.861v-60.3A19.747,19.747,0,0,0,162.385,26.92h-2.3A19.747,19.747,0,0,0,140.34,46.667V90.1A16.9,16.9,0,0,0,157.271,106.967Z" transform="translate(-121.446 -25.225)"/><path class="e" d="M199.042,348.42a46.332,46.332,0,0,1,.7,7.565c.091,4.6.932,6.228,1.044,10,.133,4.308-.616,5.926-2.361,8.343s-6.3,4.623-8.28.525-1.688-6.774-1.065-11c.637-4.371.7-6.781,1.093-10.115.329-2.935.7-5.17.7-5.17Z" transform="translate(-135.905 -121.512)"/><path class="k" d="M184.88,304.733l15.131-.273c-.224,10.1-1.828,21.316-2.1,30.822-.056,1.786.042,13.863-.63,17.513-1.009,5.52-7.558,4.77-7.909,1.471s.42-17.4.4-18.858c.063-6.08-2.8-16.343-4.28-27.25C185.426,307.64,184.964,305.259,184.88,304.733Z" transform="translate(-134.786 -108.347)"/><path class="e" d="M145.016,337.165s.6-.322.7.315c.14.757.364,2.326.7,3.566a18.323,18.323,0,0,1,.539,6c-.259,1.415-3.552,3.222-5.688,3.881a17.331,17.331,0,0,0-7.005,4.2,16.875,16.875,0,0,1-9.807,3.846c-3.678,0-6.242-1.226-7.453-3.194s1.107-2.207,5.31-4.9l3.257-2.1c6.662-4.35,9.107-6.676,10.977-11.026Z" transform="translate(-114.361 -118.117)"/><path class="k" d="M138.783,320.676c.112-3.131-2.031-29.666-2.031-29.666l14.367,6.55c-3.075,18.374-3.734,22.7-3.783,25.709h0a2.67,2.67,0,0,1,.077.771c0,3.566-4.042,5.492-7.18,7.874a59.015,59.015,0,0,1-8.5,5.548c-2.284,1.142-6.921,1.247-7.5-.217,3.825-2.921,9.387-7.292,12.427-10.627C138.082,325.027,138.642,323.8,138.783,320.676Z" transform="translate(-116.625 -104.318)"/><path class="d" d="M180.052,164.14c5.52,12.119,5.52,21.485,4.6,36.945-.841,14.185-2.165,26.7-2.165,26.7.21,2.515,3.706,7.425,4.161,18.549a227.866,227.866,0,0,1-.7,23.614s-7.853,4.35-13.66-.042c0,0-5.6-26.752-7.243-39.761-1.4-11.362-3.923-25.87-3.923-25.87l-5.275,25.807a67.244,67.244,0,0,1,2.48,11.208c.743,7.657-3.545,22.689-3.545,22.689s-8.112,2.417-13.064-1.975c0,0-1.849-24.441-2.543-33.659-.925-12.35,1.023-45.778,2.543-63.48Z" transform="translate(-121.027 -66.322)"/><path class="e" d="M163.591,210.746l-2.179-19.432s-9.765-1.3-14.192-5.464a16.041,16.041,0,0,0,11.509,7.278l3.152,18.073-3.566,25.351Z" transform="translate(-123.507 -72.824)"/><path class="k" d="M113.909,137.833a84.3,84.3,0,0,1-.532-10.683c.217-3.082.771-3.58,5.079-9.044,5.814-7.376,10.781-14.01,16.035-20.6,3.755-4.728,7.692-5.429,11.544-5.219,2.69.147-2.564,13.085-5.2,20.742l-15.11,16.238a3.222,3.222,0,0,0-.6,2.221l.939,13.828-4.539,6.045S114.694,145.454,113.909,137.833Z" transform="translate(-113.369 -44.792)"/><path class="h" d="M167.669,92.695h0c2.921.2,8.231.665,8.231.665,3.061,1.709,3.839,3.117,4.406,7.187.245,1.73-1.17,6.347-2.382,12.91l-2.3,12.168.252,6.038c1.191,3.685,3.888,8.259,6.3,15-11.7,6.529-21.506,6.774-30.4,5.6-6.781-.876-10.374-2.515-11.572-4.14.252-6.662.7-10.781.841-17.744.049-2.921-.126-5.877-.238-9.24a10.824,10.824,0,0,1-2.1-14.01c5.765-9.338,11.376-15.215,15.089-14.914Z" transform="translate(-120.461 -44.78)"/><path class="l" d="M167.669,92.695h0c2.921.2,8.231.665,8.231.665,3.061,1.709,3.839,3.117,4.406,7.187.245,1.73-1.17,6.347-2.382,12.91l-2.3,12.168.252,6.038c1.191,3.685,3.888,8.259,6.3,15-11.7,6.529-21.506,6.774-30.4,5.6-6.781-.876-10.374-2.515-11.572-4.14.252-6.662.7-10.781.841-17.744.049-2.921-.126-5.877-.238-9.24a10.824,10.824,0,0,1-2.1-14.01c5.765-9.338,11.376-15.215,15.089-14.914Z" transform="translate(-120.461 -44.78)"/><path class="m" d="M155.29,131.346s5.345,4.147,11.439,1.982a10.423,10.423,0,0,0,7.005-7.488s.644,6.97-7.04,9.345A10.1,10.1,0,0,1,155.29,131.346Z" transform="translate(-125.924 -54.851)"/><path class="k" d="M144.986,58.282c.231,10.115,3.5,12.609,5.156,13.31s4.819.28,7.9-.231v6.122s-3.552,3.727-3.292,6.508,5.6,3.1,9.583.371A30.121,30.121,0,0,0,170.2,79a2.164,2.164,0,0,0,.511-1.4V63.326s1.688,1.786,4.679-.259a5.513,5.513,0,0,0,1.4-8,4.091,4.091,0,0,0-6.192.7c-.9,1.744-1.016,3.5-2.01,2.8-2.669-1.919-1.24-6.3-4.455-8.406h0a23.115,23.115,0,0,0-3.278-1.4c-5.737-1.982-10.711-3.65-11.909-7.572C146.688,42.458,144.671,46.353,144.986,58.282Z" transform="translate(-122.828 -29.499)"/><circle class="n" cx="1.331" cy="1.331" r="1.331" transform="translate(32.105 35.158)"/><path class="e" d="M162.36,62.8a1.4,1.4,0,1,0,.435-1.016A1.4,1.4,0,0,0,162.36,62.8Z" transform="translate(-128.041 -35.551)"/><path class="e" d="M147.208,63.058a1.3,1.3,0,0,0,1.2,1.4,1.219,1.219,0,0,0,1.338-1.261,1.275,1.275,0,1,0-2.543-.119Z" transform="translate(-123.502 -35.668)"/><path class="d" d="M162.983,65.27a4.56,4.56,0,0,0,4.56-4.553c0-3.1-3.194-3.1-4.56-3.1s-4.553,0-4.553,3.1a4.56,4.56,0,0,0,4.553,4.553Zm0-6.935c2.767,0,3.839.7,3.839,2.382a3.853,3.853,0,0,1-7.706,0C159.145,59.007,160.23,58.335,162.983,58.335Z" transform="translate(-126.864 -34.419)"/><path class="d" d="M146.473,65.27a4.56,4.56,0,0,0,4.56-4.553c0-3.1-3.194-3.1-4.56-3.1s-4.553,0-4.553,3.1a4.56,4.56,0,0,0,4.553,4.553Zm0-6.935c2.76,0,3.839.7,3.839,2.382a3.853,3.853,0,0,1-7.706,0C142.635,59.007,143.713,58.335,146.473,58.335Z" transform="translate(-121.92 -34.419)"/><path class="o" d="M155.41,59.94l-.224,8.511-4.476-1.387Z" transform="translate(-124.552 -35.114)"/><path class="o" d="M163.6,82.155c3.25-.427,9.94-2.347,10.984-4.995a6.851,6.851,0,0,1-2.347,3.39c-2,1.716-8.637,3.643-8.637,3.643Z" transform="translate(-128.413 -40.272)"/><path class="e" d="M163.37,53.671l2.97,1.807a1.828,1.828,0,0,0-.6-2.452,1.7,1.7,0,0,0-2.368.644Z" transform="translate(-128.344 -32.972)"/><path class="e" d="M146.086,55.912l3.306-1.149a1.681,1.681,0,0,0-2.172-1.114A1.835,1.835,0,0,0,146.086,55.912Z" transform="translate(-123.143 -33.202)"/><path class="d" d="M157.431,61.994a.357.357,0,0,0,.357-.364c0-.581-1.149-.96-2.186-.96s-1.7.378-1.7.96a.364.364,0,0,0,.7,0,1.443,1.443,0,0,1,.981-.238,4.14,4.14,0,0,1,1.471.245.357.357,0,0,0,.378.357Z" transform="translate(-125.508 -35.333)"/><path class="d" d="M170.756,61.455h.063l8.007-.7a3.881,3.881,0,0,1,1.31-.855l-9.422.841a.364.364,0,0,0-.315.4.357.357,0,0,0,.357.315Z" transform="translate(-130.448 -35.102)"/><path class="k" d="M204.692,59.175c-2.62-3.5-4.406-6.143-6.795-9.142-1.359-1.7-2.228-2.921-3.5-4.665-.9-1.2-1.4-2.221-2.424-2.592a8.406,8.406,0,0,1-2.921-2,17.584,17.584,0,0,1-1.4-1.765,26.339,26.339,0,0,0-5.3-5.331c-2.1-1.583-4.448-2.8-6.613-4.308-1.289-.9-2.669-2.4-1.1-3.8a3.65,3.65,0,0,1,1.674-.8c3.818-.834,7.138.476,10.872,1.4a31.481,31.481,0,0,1,4.742,1.6,8.441,8.441,0,0,1,2.1,1.2,11.089,11.089,0,0,1,2.165,3.1c1.674,2.949,5.149,5.555,7.593,7.86,2.865,2.7,5.429,5.17,8.7,8.14,2.942,2.683,5.821,5.149,8.518,8.077,2.235,2.417,1.4,4.308,1.107,4.967-1.821,3.741-3.86,5.086-6.3,7.4-4.2,4.014-18.746,15.565-23.558,19.383a7.8,7.8,0,0,0-2.361,3.082l-.925,2.137c-5.492,1.009-9.156-7.236-4.609-17.162a10.417,10.417,0,0,1,3.341-4.028C193.442,67.805,204.692,59.175,204.692,59.175Z" transform="translate(-131.51 -24.5)"/><path class="o" d="M217.16,74a14.452,14.452,0,0,0,6.711,4.616s-3.5.9-8.3-3.411Z" transform="translate(-143.977 -39.325)"/><path class="d" d="M116.062,146.489h0l.9-.771h0a1,1,0,0,1,.918-.1l9.73,2.641a3.587,3.587,0,0,1,2.186,2.045l7.005,20.2a.925.925,0,0,1-.126,1.03h0l-.925.8h0a1,1,0,0,1-.932.112l-9.772-2.648a3.587,3.587,0,0,1-2.186-2.045c-1.4-3.972-5.6-16.224-7.005-20.2A.929.929,0,0,1,116.062,146.489Z" transform="translate(-114.092 -60.755)"/><path class="h" d="M135.88,171.616l-7.005-20.2a3.559,3.559,0,0,0-2.186-2.038l-9.723-2.648c-.9-.245-1.4.273-1.079,1.156,1.4,3.972,5.6,16.224,7.005,20.2a3.587,3.587,0,0,0,2.186,2.045l9.73,2.641C135.7,173.017,136.182,172.5,135.88,171.616Z" transform="translate(-114.094 -61.09)"/><path class="f" d="M132.86,151.043a3.5,3.5,0,0,1,1.135,1.485L141,172.717a.953.953,0,0,1-.1,1.009l.869-.743h0a.925.925,0,0,0,.133-1.037l-7.005-20.2a3.376,3.376,0,0,0-1.044-1.4Z" transform="translate(-119.206 -62.192)"/><path class="o" d="M118.215,158.447c.7,2.052,3.131,3.425,7.152,4.378s6.242,5.219,5.6,6.515-7.138,2.508-9.737,2.1-5.2-4.126-6-5.289-1.7-9.275-.862-10.389a3.152,3.152,0,0,1,2.585-.939Z" transform="translate(-113.57 -63.529)"/></g></g></svg>