<svg xmlns="http://www.w3.org/2000/svg" width="24" height="24" viewBox="0 0 24 24"><defs><style>.a{fill:#0D2E3A;}</style></defs><path class="a" d="M20.485,3.515A12,12,0,0,0,3.515,20.485a12,12,0,0,0,14.694,1.785.938.938,0,0,0-.971-1.6,10.215,10.215,0,1,1,3.17-3.047.937.937,0,1,0,1.559,1.042A11.97,11.97,0,0,0,20.485,3.515Z"/><path class="a" d="M170.186,145.561a2.113,2.113,0,0,0-3.171,1.833v6.139a2.107,2.107,0,0,0,3.171,1.833l5.29-3.069a2.12,2.12,0,0,0,0-3.665Zm4.349,5.113-5.29,3.069a.223.223,0,0,1-.234,0,.232.232,0,0,1-.121-.211v-6.139a.232.232,0,0,1,.121-.211.235.235,0,0,1,.117-.033.231.231,0,0,1,.117.033l5.29,3.069a.245.245,0,0,1,0,.422Z" transform="translate(-159.186 -138.463)"/></svg>