<svg xmlns="http://www.w3.org/2000/svg" width="467.212" height="295.211" viewBox="0 0 467.212 295.211"><defs><style>.a{fill:#d0d6ec;}.b{fill:#e7b2b6;}.c{fill:#221e50;}.d{fill:#2b295e;}.e{fill:#333383;}.f{fill:#7fe69e;}.g,.j{fill:#555ca5;}.h{fill:#d98789;}.i{fill:#dfe5f4;}.j{opacity:0.4;}.k{fill:#22ab4b;}.l{fill:#d35c2b;}.m{fill:#f0d170;}</style></defs><g transform="translate(-385.1 -18.469)"><g transform="translate(627.439 24.99)"><path class="a" d="M1924.859,265.123l-13.949,10.407s17.83,110.233,20.584,139.195l72.12-2.217S1975.064,261.858,1924.859,265.123Z" transform="translate(-1804.86 -215.285)"/><path class="a" d="M1812.617,259.27l-.74,23.47s-2.34,43.534-5.2,47.691c-1.37,1.982-7.017,6.446-12.576,10.585-6.119,4.567-12.115,8.713-12.115,8.713H1770.57l15.41-19.283,5.612-7.026s2.512-41.947,2.968-47.036C1795.373,267.145,1812.617,259.27,1812.617,259.27Z" transform="translate(-1696.563 -210.809)"/><path class="b" d="M1794.1,581.569c-6.119,4.567-12.115,8.713-12.115,8.713H1770.57L1785.98,571C1787.706,572.827,1792.588,578.131,1794.1,581.569Z" transform="translate(-1696.563 -451.362)"/><path class="c" d="M2020.89,1272.008l-2.621,8.43H1992.26S1998.914,1269.067,2020.89,1272.008Z" transform="translate(-1867.635 -991.933)"/><path class="c" d="M2234.345,1272.818l-2.322,8.43H2209S2214.889,1269.877,2234.345,1272.818Z" transform="translate(-2034.886 -992.558)"/><path class="d" d="M2026.251,587.5h50s-16.807,83.475-36.33,157.375l-23.546.685Z" transform="translate(-1886.247 -464.094)"/><path class="e" d="M2191.235,584s10.5,62.741,3.085,158.872h-20.162l-12.629-126.724h0c-.368-3.7-6.069-6.939-6.069-6.939V587.5Z" transform="translate(-1993.571 -461.393)"/><path class="d" d="M2288.6,788.994c-1.827-12.056-3.34-26.365-4.172-41.3-.128-2.283-.244-4.631-.349-6.978-.114-2.591-.212-5.217-.295-7.8a11.5,11.5,0,0,1,.457-2.909,10.355,10.355,0,0,0,.427-2.642c-.242-9.818-.041-18.826.137-26.767q.068-3.124.128-6.119c.333-18.054.457-28.283.457-28.384h0c0,.1.457,10.275.121,28.359q-.055,3-.13,6.122c-.176,7.932-.376,16.922-.135,26.733a11.845,11.845,0,0,1-.457,2.822,11.453,11.453,0,0,0-.434,2.724c.082,2.582.182,5.2.3,7.791.1,2.347.228,4.692.347,6.971.831,14.91,1.938,29.345,3.763,41.383Z" transform="translate(-2092.591 -524.747)"/><path class="f" d="M1954.424,212c8.7-7.763,22.778-12.419,36.035-13.958,15.145-1.756,52.45,75.883,37.921,85.64-16.568,11.127-50,3.263-50,3.263s-16.837-21.4-21.42-31.112C1953.609,248.744,1954.424,212,1954.424,212Z" transform="translate(-1838.371 -163.538)"/><path class="e" d="M1781.727,198.12l-19.917,10.93,4.615,8.622,19.917-11.3Z" transform="translate(-1689.804 -163.622)"/><path class="g" d="M1702.12,224.879l-4.615-8.259-17.627,9.674-6.334-12.225-22.765,11.248,9.453,21.584c9.416.84,25.249-9.8,25.249-9.8l-1.119-2.155Z" transform="translate(-1604.125 -175.93)"/><path class="a" d="M1504.282,282.837l-.075-.174-1.646-3.761-9.453-21.586-.781-1.776-28.034,12.277.055.128,5.494,12.538c.075.171.153.342.228.509-.637.55-1.53,1.347-2.553,2.27-4.11,3.706-10.275,9.444-10.275,9.444l.057.066,4.567,5.1,12.1-11.645c.046.043.089.082.137.121h0c-2.183,4.952-5.937,13.9-5.937,13.9l6.517,2.382,5.229-12.962c.3.1.6.194.913.276.265,5.354.658,12,.658,12h6.957l-.881-11.576a16.647,16.647,0,0,0,4.389-1.249l4.322-1.891c5.01,2.955,12.264,8.891,14.371,19.2.132.644.244,1.308.333,1.989h-61.853a2.678,2.678,0,0,0-2.671,2.671h0a2.678,2.678,0,0,0,2.671,2.671h62.072q-.062,1.623-.285,3.354c-.945,7.268-4.169,16.013-10.921,26.475h25.5a93.228,93.228,0,0,0,2.014-14.179C1528.6,313.575,1526.407,289.3,1504.282,282.837Z" transform="translate(-1446.45 -207.931)"/><rect class="e" width="44.951" height="2.149" transform="translate(42.444 135.663)"/><path class="h" d="M1938.37,171.666s2.464,6.85,4.29,11.873a5.48,5.48,0,0,0,6.85,3.34l2.669-.865a10.417,10.417,0,0,0,6.327-5.736l2.434-5.564s-7.1-5.023-11.5-15.574Z" transform="translate(-1826.049 -133.542)"/><path class="b" d="M1882.908,111.834s16.5-7.4,11.739-17.607-5.843-18.038-16.581-13.746-10.96,9.133-10.193,12.93S1878.49,113.493,1882.908,111.834Z" transform="translate(-1771.444 -71.917)"/><path class="g" d="M1873.034,69.34s-7.969-12.807-22.1-5.08-14.766-9-3.425-17.23c0,0,1.126,5.439,9.277,2.283C1873.9,42.685,1873.418,66.481,1873.034,69.34Z" transform="translate(-1749.839 -47.03)"/><path class="i" d="M2118.074,359.778l-42.23,8.82s-13.837-45.92-26.046-85.852c-3.9-12.748-7.631-24.888-10.688-34.706-3.331-10.686-5.866-18.655-6.969-21.739a141.765,141.765,0,0,1-6.752-30.151s20.758-7.078,24.228-6.071c6.078,1.76,22.114,27.509,33.229,58.3C2092.3,274.549,2118.074,359.778,2118.074,359.778Z" transform="translate(-1893.2 -157.34)"/><path class="j" d="M1928.5,259.27l1.772,54.875-7.711-35.693,2.206-3.77-4.025-4.939Z" transform="translate(-1812.445 -210.809)"/><path class="j" d="M2025.39,217s5.87,51.185,16.953,61.238c0,0-5.569-40.122-4.421-43.177l-4.372-1.909,2.427-5.176Z" transform="translate(-1893.2 -178.191)"/><path class="a" d="M2096.168,387.336c-3.9-12.745-7.631-24.888-10.688-34.706,4.11-6.37,22.9-27.4,22.9-27.4S2104.712,360.112,2096.168,387.336Z" transform="translate(-1939.57 -261.708)"/><path class="b" d="M1828.934,306.54l-5.857,7.158-15.622-14.919-3.032-2.9c-2.74-1.813-4.222-6.359-3.71-10.912s-.039-3.386.256-6.622,4.089-1.069,4.089-1.069a12.572,12.572,0,0,1,5.2,14.953l2.149,1.646Z" transform="translate(-1719.746 -224.158)"/><path class="i" d="M1928.743,220.538s-13.455,48.319-17.68,54.343l-27.2-16.36-8.22,9.613s25.324,29.5,39.232,28.409c7.5-.587,32.407-50.112,32.407-50.112S1944.959,219.033,1928.743,220.538Z" transform="translate(-1777.643 -180.875)"/><path class="i" d="M1812.445,293.874c-1.671,1.7-3.555,3.576-4.95,4.9l-3.032-2.9c-2.74-1.813-4.222-6.359-3.71-10.912s-.039-3.386.256-6.622,4.089-1.069,4.089-1.069a12.572,12.572,0,0,1,5.2,14.953Z" transform="translate(-1719.776 -224.158)"/><path class="i" d="M1721.081,421.05c-.121.3-.189.457-.189.457-.043-12.316-16.588-39.5-21.443-43.305-1.413-1.11-2-1.97-2.13-2.63a1.3,1.3,0,0,1,.338-1.164,1.389,1.389,0,0,1,.116-.116l.075.174C1719.973,380.932,1722.165,405.211,1721.081,421.05Z" transform="translate(-1640.016 -299.567)"/><path class="i" d="M1552.624,255.54s-1,8.857-9.574,12.636c-6.042,2.658-14.141.989-18.406-.228l-.055-.128Z" transform="translate(-1506.748 -207.931)"/><path class="i" d="M1504.013,377a9.132,9.132,0,0,1-1.226,3.226,13.9,13.9,0,0,1-8.989,6.284l-.057-.066S1499.912,380.694,1504.013,377Z" transform="translate(-1482.942 -301.658)"/></g><path class="k" d="M813.359,694.65l-5.85,29.379-10.037,50.4-12.159,61.04H510.955L498.192,776.5,487.047,725,480.48,694.65Z" transform="translate(-73.602 -521.788)"/><path class="f" d="M813.351,694.65l-5.85,29.379-10.047,50.4c-31.649-16.346-88.953-24.1-140.172-28.208C602.8,741.841,532.968,758,498.175,776.5L487.039,725,480.47,694.65Z" transform="translate(-73.594 -521.788)"/><path class="g" d="M752.559,660.735H390.123a5.023,5.023,0,0,1-5.023-5.012h0a5.023,5.023,0,0,1,5.023-5.023H752.559a5.023,5.023,0,0,1,5.023,5.023h0A5.023,5.023,0,0,1,752.559,660.735Z" transform="translate(0 -487.873)"/><g transform="translate(478.717 18.469)"><path class="l" d="M889.2,81.682c-5.441-5.4-4.742-47.328-4.795-49.89-.18-7.4-2.968-10.5-2.968-10.5-1.434-3.923-24.817-5.918-30.681,9.046-3.763,9.6-13.389,28.27-13.389,28.27-39.332,54.571-23.7,81.514-23.7,81.514l1.681-.185c-.578-1.788-1.034-4.313-.445-5.384l1.6,5.345,29.057-3.738c.228-5.583,2.464-14.291,2.464-14.291l.119,14.771,3.9.206c-1.544-31.163,5.078-46.465,7.039-50.258-1.683,17.323,6.7,45.577,6.7,45.577l1.2-.269-2.722-14.125,3.484,13.953,3.375-.767q-.806-2.822-1.482-5.505l1.482,5.505c7.24-7.877,20.5-7.181,20.5-7.181C898.825,113.649,889.2,81.682,889.2,81.682Z" transform="translate(-807.06 -18.469)"/><path class="b" d="M1168.75,1206.2l8.478,16.917,6.9-2.66-1.585-17.269Z" transform="translate(-1083.435 -932.682)"/><path class="l" d="M1192.78,1276.43l2.311,7.64h22.924S1212.152,1273.763,1192.78,1276.43Z" transform="translate(-1101.979 -988.859)"/><path class="e" d="M1064.745,567.3l18.109,148.337h-19.2s-25.057-64.161-28.651-131C1033.626,559.095,1064.745,567.3,1064.745,567.3Z" transform="translate(-980.191 -441.018)"/><path class="b" d="M962.87,1194.579l3.927,13.8,7.345-.888,1.628-21.089Z" transform="translate(-924.564 -919.725)"/><path class="l" d="M977.07,1276.43l2.311,7.64h22.924S996.442,1273.763,977.07,1276.43Z" transform="translate(-935.522 -988.859)"/><path class="g" d="M936.37,573.142H922.147L906.888,571s-9.766,21.333-4.742,84.537c2.555,32.117,12.056,66.282,12.056,66.282l19.687-.4,8.5-117.878c.253-3.229,4.014-4.391,4.014-4.391l-.548-26.37Z" transform="translate(-876.597 -444.84)"/><path class="e" d="M964.613,728.74c-2.651-14.252-4.978-31.163-6.48-48.8-.228-2.694-.457-5.48-.651-8.243-.228-3.062-.429-6.165-.612-9.211a12.991,12.991,0,0,1,.47-3.425,13.182,13.182,0,0,0,.457-3.117c-.612-11.6-.642-22.228-.671-31.6q0-3.687-.032-7.224c-.151-21.31-.315-33.386-.324-33.505h0c0,.119.886,12.14,1.039,33.48q.025,3.541.032,7.227c.027,9.362.059,19.977.669,31.56a13.5,13.5,0,0,1-.457,3.327,13.157,13.157,0,0,0-.457,3.21c.183,3.05.388,6.144.61,9.2.2,2.772.422,5.544.651,8.236,1.5,17.609,3.329,34.663,5.975,48.895Z" transform="translate(-919.857 -454.579)"/><path class="h" d="M1027.2,139.367s-2.254,13.1,5.9,19.278c0,0-7.583,10.807-11.448,10.48-4.3-.365-10.6-13.636-10.6-13.636a93.092,93.092,0,0,0,1.416-20.609Z" transform="translate(-961.743 -108.3)"/><path class="b" d="M1030.843,68.995s-17.967.822-18.305-10.375-2.886-18.634,8.572-19.636,13.816,3.208,14.841,6.918S1035.51,68.492,1030.843,68.995Z" transform="translate(-962.525 -34.183)"/><path class="f" d="M978.522,300.571s-2.384,1.966-26.185,3.146c-1.55.078-3.019.128-4.416.162a85.091,85.091,0,0,1-18.065-1.142c-5.1-1-6.635-2.283-6.635-2.283s7.428-17.928,7.428-26.445c0-5.886,13.289-53.6,13.289-53.6,1.557,4.288,5.754,7.96,10.362,7.992,12.058.089,7.355-8.014,7.355-8.014l13.577,5.459a25.508,25.508,0,0,0-1.055,9.923,12.224,12.224,0,0,0,1.03,3.667,8.178,8.178,0,0,0,.391.742c3.286,5.612,1.034,15.344-1.37,26.619S978.522,300.571,978.522,300.571Z" transform="translate(-893.967 -174.285)"/><path class="b" d="M1197.805,266.963c-.966,2.345-.913,1.345-2.21,4.672s-3.946,5.937-6.489,6.2c0,0-1.112.861-2.943,2.233h0c-.546.409-1.155.863-1.827,1.354-8.238,6.076-24.749,17.687-29.911,17.109-6.969-.779-26.715-29.108-26.715-29.108l5.329-25.116s14.328,24.08,21.392,42.273c0,0,17.314-7.188,27.215-11.357l1.518-.639,3.224-1.37a9.8,9.8,0,0,1,8.978-8.462S1198.766,264.618,1197.805,266.963Z" transform="translate(-1051.766 -192.743)"/><path class="g" d="M1380.081,336.045c-.966,2.345-.913,1.345-2.21,4.672s-3.946,5.937-6.489,6.2c0,0-1.112.861-2.943,2.233h0c-.546.409-1.155.863-1.827,1.354-.119-2.644-2.692-6.2-2.692-6.2h0l1.518-.639,3.224-1.37a9.8,9.8,0,0,1,8.978-8.462S1381.042,333.7,1380.081,336.045Z" transform="translate(-1234.042 -261.826)"/><path class="i" d="M1411.479,315.55v28.085a2.4,2.4,0,1,1-4.809,0V315.55Z" transform="translate(-1267.031 -247.717)"/><path class="g" d="M1411.479,402.72v8.186a2.4,2.4,0,1,1-4.809,0V402.72Z" transform="translate(-1267.031 -314.984)"/><path class="i" d="M1163.294,288.319s-9.4,4.72-11.266,4.72-6.927-2.457-12.257-8.809c-2.322-2.77-5.724-7.106-8.816-11.14-4-5.215-7.478-9.926-7.427-10.072.084-.258,1.95-26.338,1.95-26.338a42.629,42.629,0,0,1,4.763,1.518c.3.3,17.81,31.667,20.922,40.935l10.421-3.13Z" transform="translate(-1048.539 -186.856)"/><path class="i" d="M1079.68,265.542l2.235,100.322h25.616s-5.6-56.918-8.275-74.721c-3.069-20.4-2.852-61.859-2.852-61.859s-10.517-4.283-11.318-4.153S1079.68,265.542,1079.68,265.542Z" transform="translate(-1014.703 -177.941)"/><path class="a" d="M1081.23,220.39s-4.268,33.268-2.708,41.5l6.713-22.447-1.516-2.678,2.772-.868-1.731-14.12A4.672,4.672,0,0,0,1081.23,220.39Z" transform="translate(-1013.544 -174.285)"/><path class="i" d="M857.618,266.6v99.285s-16.289-.294-28.87-.7c-7.914-.253-14.362-.555-14.362-.856,0-.706,4.468-41.328,12.631-70.707a56.505,56.505,0,0,0,1.856-20.093c-.589-6.622-1.448-14.4-2.482-18a.645.645,0,0,1-.03-.094s-15.4,12.412-15.006,13,4.2,10.917,4.2,10.917-7.231,5.252-8.7,5.978c0,0-13.428-18.1-11.567-20.988,0,0,23.4-39.791,28.719-38.131,1.509.473,17.244-1.05,17.244-1.05Z" transform="translate(-795.105 -177.958)"/><path class="a" d="M1000.347,223.531c.658.658,13.207,41.451,13.207,41.451s-11.524-19.666-12.389-20.093l1.286-2.427-2.758-1.381-2.512-17.538S999.269,222.453,1000.347,223.531Z" transform="translate(-951.04 -176.342)"/><path class="b" d="M877.826,483c-2.306,1.053-1.6.347-4.795,1.9s-6.939,1.63-8.978.082l-2.256-1.733c-.386-.3-1.091-.934-1.991-1.781-4.338-4.069-13.216-13.042-13.216-13.042l8.7-5.978c.228,1.295,7.192,13.67,8.5,15.983.135.24.21.37.21.37l1.233.954a9.794,9.794,0,0,1,12.33-.032S880.134,481.952,877.826,483Z" transform="translate(-834.834 -361.075)"/><path class="a" d="M849.985,459.92,840,466.151a13.11,13.11,0,0,0,1.347,1.343c.043-.087,9.008-6.546,9.008-6.546Z" transform="translate(-829.749 -359.123)"/><path class="l" d="M961.434,32.052S939.4,49.037,941.341,61.582c1.827,11.784-1.642,12.834-4.22,13.958-6.651,2.9-17.508-2.854-20.963-2.683-2.461.123,5.994-2.386,10.01-7.763,10.693-14.28,9.652-33.565,11.786-34.962C952.495,20.674,961.434,32.052,961.434,32.052Z" transform="translate(-888.177 -24.569)"/><path class="a" d="M1292.086,402.72s1.863,11.949,2.772,13.9l-3.247,1.66s-1.95-12.357-1.429-14.613Z" transform="translate(-1177.072 -314.984)"/><rect class="a" width="1.4" height="19.904" transform="translate(140.644 67.833)"/><path class="a" d="M901.2,406.845c-1.717,6.512-5.631,41.588-7.291,56.934-7.914-.253-14.362-.555-14.362-.856,0-.706,4.468-41.328,12.631-70.707a56.508,56.508,0,0,0,1.856-20.093c-.589-6.622-1.448-14.4-2.482-18,1.128-.984,2.427-1.564,3.169-.936C896.367,354.564,903.41,398.458,901.2,406.845Z" transform="translate(-860.269 -276.559)"/><path class="g" d="M922.49,533.966c-2.306,1.053-1.6.347-4.795,1.9s-6.939,1.63-8.978.082l-2.256-1.733c-.386-.3-1.091-.934-1.991-1.781a14.39,14.39,0,0,0,3.984-3.041c.135.24.21.37.21.37l1.233.954a9.794,9.794,0,0,1,12.33-.032S924.8,532.913,922.49,533.966Z" transform="translate(-879.499 -412.037)"/><path class="a" d="M1187.375,395.7s-9.4,4.72-11.266,4.72-6.928-2.457-12.257-8.809c-2.322-2.77-5.724-7.106-8.816-11.14-.432-2.13-.594-4.489.852-4.633,2.6-.26,16.636,21.052,20.143,20.922S1187.375,395.7,1187.375,395.7Z" transform="translate(-1072.619 -294.241)"/></g><g transform="translate(435.002 130.623)"><path class="i" d="M630.269,509.66v28.085a2.4,2.4,0,0,1-4.809,0V509.66Z" transform="translate(-620.48 -509.66)"/><path class="g" d="M630.269,596.83v8.186a2.4,2.4,0,1,1-4.809,0V596.83Z" transform="translate(-620.48 -576.926)"/><path class="i" d="M661.022,509.66v28.085a2.4,2.4,0,1,1-4.795,0V509.66Z" transform="translate(-644.217 -509.66)"/><path class="g" d="M661.022,596.83v8.186a2.4,2.4,0,1,1-4.795,0V596.83Z" transform="translate(-644.217 -576.926)"/><path class="i" d="M691.749,509.66v28.085a2.4,2.4,0,0,1-4.809,0V509.66Z" transform="translate(-667.922 -509.66)"/><path class="g" d="M691.749,596.83v8.186a2.4,2.4,0,1,1-4.809,0V596.83Z" transform="translate(-667.922 -576.926)"/><path class="i" d="M724.929,509.66v28.085a2.4,2.4,0,0,1-4.809,0V509.66Z" transform="translate(-693.526 -509.66)"/><path class="g" d="M724.929,596.83v8.186a2.4,2.4,0,1,1-4.809,0V596.83Z" transform="translate(-693.526 -576.926)"/><rect class="i" width="36.3" height="4.149" transform="translate(0 28.064)"/><rect class="a" width="0.694" height="18.958" transform="translate(5.651)"/><rect class="a" width="0.694" height="18.958" transform="translate(12.844)"/><rect class="a" width="0.694" height="18.958" transform="translate(19.719)"/><rect class="a" width="0.694" height="18.958" transform="translate(27.397)"/><path class="i" d="M1276.657,566.8a7.109,7.109,0,1,1-9.711-6.617V551.18h5.211v9.008A7.108,7.108,0,0,1,1276.657,566.8Z" transform="translate(-1112.016 -541.7)"/><path class="a" d="M1277.078,551.18h-2.283v8.887s-3.818,4.315-3.055,8.425h3.653s-.11-6.585,1.678-8.416Z" transform="translate(-1119.116 -541.7)"/><path class="m" d="M1276.893,623.13a7.11,7.11,0,0,1-14.093.279,73.069,73.069,0,0,1,7.917.3A16.786,16.786,0,0,0,1276.893,623.13Z" transform="translate(-1112.296 -597.221)"/><path class="i" d="M1358.618,566.8a7.11,7.11,0,0,1-14.138,1.082,7.365,7.365,0,0,1-.08-1.082,7.11,7.11,0,0,1,4.5-6.622v-9h5.208v9.008a7.108,7.108,0,0,1,4.5,6.617Z" transform="translate(-1175.264 -541.7)"/><path class="a" d="M1359.01,551.18h-2.283v8.887s-3.818,4.315-3.062,8.425h3.653s-.107-6.585,1.678-8.416Z" transform="translate(-1182.337 -541.7)"/><path class="l" d="M1358.843,623.13a7.11,7.11,0,0,1-14.093.279,73.079,73.079,0,0,1,7.916.3A16.781,16.781,0,0,0,1358.843,623.13Z" transform="translate(-1175.534 -597.221)"/></g></g></svg>