<svg xmlns="http://www.w3.org/2000/svg" width="50" height="50" viewBox="0 0 50 50"><defs><style>.a{fill:#22ab4b;}</style></defs><path class="a" d="M25-1090a24.845,24.845,0,0,1-9.731-1.965,24.92,24.92,0,0,1-7.947-5.358,24.919,24.919,0,0,1-5.358-7.947A24.843,24.843,0,0,1,0-1115a24.843,24.843,0,0,1,1.965-9.731,24.919,24.919,0,0,1,5.358-7.947,24.92,24.92,0,0,1,7.947-5.358A24.845,24.845,0,0,1,25-1140a24.845,24.845,0,0,1,9.731,1.965,24.92,24.92,0,0,1,7.947,5.358,24.919,24.919,0,0,1,5.358,7.947A24.843,24.843,0,0,1,50-1115a24.843,24.843,0,0,1-1.965,9.731,24.919,24.919,0,0,1-5.358,7.947,24.92,24.92,0,0,1-7.947,5.358A24.845,24.845,0,0,1,25-1090Zm-9-34,.011,8.133,13.2,1.867-13.2,1.868L16-1104l22-10-22-10Z" transform="translate(0 1140)"/></svg>