<svg xmlns="http://www.w3.org/2000/svg" width="35.263" height="45.016" viewBox="0 0 35.263 45.016"><defs><style>.a{fill:#22ab4b;stroke:#22ab4b;}</style></defs><g transform="translate(0.445 0.511)"><path class="a" d="M33.882,8.909,17.345.1a.822.822,0,0,0-.783,0L.482,8.913a.823.823,0,0,0-.427.722V21.146A23.833,23.833,0,0,0,14.34,42.959l2.232.973a.822.822,0,0,0,.655,0l2.515-1.086A23.787,23.787,0,0,0,34.318,20.918V9.636a.824.824,0,0,0-.436-.727ZM32.671,20.918A22.144,22.144,0,0,1,19.1,41.331l-.006,0-2.19.946L15,41.45a22.185,22.185,0,0,1-13.3-20.3V10.123L16.963,1.758l15.708,8.37Zm0,0" transform="translate(0 0)"/><path class="a" d="M81.291,149.475a.823.823,0,0,0-1.252,1.069l4.349,5.093a.823.823,0,0,0,1.145.1l10.129-8.24a.823.823,0,0,0-1.039-1.277l-9.5,7.732Zm0,0" transform="translate(-70.403 -128.863)"/></g></svg>